<svg width="252" height="60" viewBox="0 0 252 60" fill="none" xmlns="http://www.w3.org/2000/svg">
<circle cx="30" cy="30" r="28" stroke="white" stroke-width="4"/>
<path d="M25.64 36.7H29.69V23.77C28.59 24.81 27.77 25.85 27.23 26.89L24.11 25.09C24.71 24.07 25.68 22.92 27.02 21.64C28.36 20.36 29.17 19.72 29.45 19.72C29.75 19.72 30.48 20.07 31.64 20.77C32.8 21.45 33.43 21.9 33.53 22.12V36.7H36.32V40H25.64V36.7Z" fill="white"/>
<path d="M95.492 25.864C95.492 27.328 95.156 28.672 94.484 29.896C93.812 31.096 92.78 32.068 91.388 32.812C89.996 33.556 88.268 33.928 86.204 33.928H82.388V43H76.232V17.728H86.204C88.22 17.728 89.924 18.076 91.316 18.772C92.708 19.468 93.752 20.428 94.448 21.652C95.144 22.876 95.492 24.28 95.492 25.864ZM85.736 29.032C86.912 29.032 87.788 28.756 88.364 28.204C88.94 27.652 89.228 26.872 89.228 25.864C89.228 24.856 88.94 24.076 88.364 23.524C87.788 22.972 86.912 22.696 85.736 22.696H82.388V29.032H85.736ZM97.4728 32.92C97.4728 30.856 97.8568 29.044 98.6248 27.484C99.4168 25.924 100.485 24.724 101.829 23.884C103.173 23.044 104.673 22.624 106.329 22.624C107.745 22.624 108.981 22.912 110.037 23.488C111.117 24.064 111.945 24.82 112.521 25.756V22.912H118.677V43H112.521V40.156C111.921 41.092 111.081 41.848 110.001 42.424C108.945 43 107.709 43.288 106.293 43.288C104.661 43.288 103.173 42.868 101.829 42.028C100.485 41.164 99.4168 39.952 98.6248 38.392C97.8568 36.808 97.4728 34.984 97.4728 32.92ZM112.521 32.956C112.521 31.42 112.089 30.208 111.225 29.32C110.385 28.432 109.353 27.988 108.129 27.988C106.905 27.988 105.861 28.432 104.997 29.32C104.157 30.184 103.737 31.384 103.737 32.92C103.737 34.456 104.157 35.68 104.997 36.592C105.861 37.48 106.905 37.924 108.129 37.924C109.353 37.924 110.385 37.48 111.225 36.592C112.089 35.704 112.521 34.492 112.521 32.956ZM130.762 22.624C132.178 22.624 133.414 22.912 134.47 23.488C135.55 24.064 136.378 24.82 136.954 25.756V22.912H143.11V42.964C143.11 44.812 142.738 46.48 141.994 47.968C141.274 49.48 140.158 50.68 138.646 51.568C137.158 52.456 135.298 52.9 133.066 52.9C130.09 52.9 127.678 52.192 125.83 50.776C123.982 49.384 122.926 47.488 122.662 45.088H128.746C128.938 45.856 129.394 46.456 130.114 46.888C130.834 47.344 131.722 47.572 132.778 47.572C134.05 47.572 135.058 47.2 135.802 46.456C136.57 45.736 136.954 44.572 136.954 42.964V40.12C136.354 41.056 135.526 41.824 134.47 42.424C133.414 43 132.178 43.288 130.762 43.288C129.106 43.288 127.606 42.868 126.262 42.028C124.918 41.164 123.85 39.952 123.058 38.392C122.29 36.808 121.906 34.984 121.906 32.92C121.906 30.856 122.29 29.044 123.058 27.484C123.85 25.924 124.918 24.724 126.262 23.884C127.606 23.044 129.106 22.624 130.762 22.624ZM136.954 32.956C136.954 31.42 136.522 30.208 135.658 29.32C134.818 28.432 133.786 27.988 132.562 27.988C131.338 27.988 130.294 28.432 129.43 29.32C128.59 30.184 128.17 31.384 128.17 32.92C128.17 34.456 128.59 35.68 129.43 36.592C130.294 37.48 131.338 37.924 132.562 37.924C133.786 37.924 134.818 37.48 135.658 36.592C136.522 35.704 136.954 34.492 136.954 32.956ZM166.5 32.632C166.5 33.208 166.464 33.808 166.392 34.432H152.46C152.556 35.68 152.952 36.64 153.648 37.312C154.368 37.96 155.244 38.284 156.276 38.284C157.812 38.284 158.88 37.636 159.48 36.34H166.032C165.696 37.66 165.084 38.848 164.196 39.904C163.332 40.96 162.24 41.788 160.92 42.388C159.6 42.988 158.124 43.288 156.492 43.288C154.524 43.288 152.772 42.868 151.236 42.028C149.7 41.188 148.5 39.988 147.636 38.428C146.772 36.868 146.34 35.044 146.34 32.956C146.34 30.868 146.76 29.044 147.6 27.484C148.464 25.924 149.664 24.724 151.2 23.884C152.736 23.044 154.5 22.624 156.492 22.624C158.436 22.624 160.164 23.032 161.676 23.848C163.188 24.664 164.364 25.828 165.204 27.34C166.068 28.852 166.5 30.616 166.5 32.632ZM160.2 31.012C160.2 29.956 159.84 29.116 159.12 28.492C158.4 27.868 157.5 27.556 156.42 27.556C155.388 27.556 154.512 27.856 153.792 28.456C153.096 29.056 152.664 29.908 152.496 31.012H160.2ZM168.488 22.444V16.72H178.46V43H172.052V22.444H168.488ZM192.751 17.728C195.415 17.728 197.743 18.256 199.735 19.312C201.727 20.368 203.263 21.856 204.343 23.776C205.447 25.672 205.999 27.868 205.999 30.364C205.999 32.836 205.447 35.032 204.343 36.952C203.263 38.872 201.715 40.36 199.699 41.416C197.707 42.472 195.391 43 192.751 43H183.283V17.728H192.751ZM192.355 37.672C194.683 37.672 196.495 37.036 197.791 35.764C199.087 34.492 199.735 32.692 199.735 30.364C199.735 28.036 199.087 26.224 197.791 24.928C196.495 23.632 194.683 22.984 192.355 22.984H189.439V37.672H192.355ZM228.375 32.632C228.375 33.208 228.339 33.808 228.267 34.432H214.335C214.431 35.68 214.827 36.64 215.523 37.312C216.243 37.96 217.119 38.284 218.151 38.284C219.687 38.284 220.755 37.636 221.355 36.34H227.907C227.571 37.66 226.959 38.848 226.071 39.904C225.207 40.96 224.115 41.788 222.795 42.388C221.475 42.988 219.999 43.288 218.367 43.288C216.399 43.288 214.647 42.868 213.111 42.028C211.575 41.188 210.375 39.988 209.511 38.428C208.647 36.868 208.215 35.044 208.215 32.956C208.215 30.868 208.635 29.044 209.475 27.484C210.339 25.924 211.539 24.724 213.075 23.884C214.611 23.044 216.375 22.624 218.367 22.624C220.311 22.624 222.039 23.032 223.551 23.848C225.063 24.664 226.239 25.828 227.079 27.34C227.943 28.852 228.375 30.616 228.375 32.632ZM222.075 31.012C222.075 29.956 221.715 29.116 220.995 28.492C220.275 27.868 219.375 27.556 218.295 27.556C217.263 27.556 216.387 27.856 215.667 28.456C214.971 29.056 214.539 29.908 214.371 31.012H222.075ZM240.659 37.24L245.015 22.912H251.567L244.439 43H236.843L229.715 22.912H236.303L240.659 37.24Z" fill="white"/>
</svg>
