<svg width="403" height="403" viewBox="0 0 403 403" fill="none" xmlns="http://www.w3.org/2000/svg">
<path d="M303.818 122.281L197.306 120.209L197.305 120.178L196.7 120.197L196.096 120.185L196.096 120.215L89.5846 123.528C89.5846 123.528 -29.9929 210.554 196.162 368.513L196.766 368.941L197.371 368.506C423.442 207.915 303.818 122.281 303.818 122.281Z" fill="black"/>
<path d="M234.012 356.779C224.767 364.049 214.976 371.355 204.614 378.714L204.062 379.112C199.696 382.244 193.841 382.279 189.474 379.194L188.87 378.766C94.0689 312.551 45.7919 249.369 45.4378 191.008C45.1357 140.972 80.7044 114.507 82.2244 113.405C84.2756 111.911 86.7312 111.07 89.2639 110.991L194.91 107.706C195.402 107.656 195.897 107.635 196.394 107.643L196.993 107.639C197.497 107.626 197.999 107.641 198.496 107.686L304.133 109.739C306.664 109.787 309.118 110.601 311.172 112.071C312.688 113.157 348.275 139.207 348 189.246C347.714 241.235 309.395 297.503 234.012 356.779ZM196.764 353.537C300.477 278.258 322.694 222.775 322.88 189.246C323.046 159.191 305.934 140.821 299.166 134.738L196.99 132.748C196.897 132.749 196.802 132.745 196.708 132.742C196.61 132.746 196.513 132.749 196.417 132.753L94.2396 135.93C87.4121 142.139 70.1987 160.829 70.5635 191.192C70.9663 224.647 93.401 279.73 196.764 353.537Z" fill="white"/>
<path d="M196.742 132.741C196.717 132.74 196.694 132.743 196.667 132.743C196.584 132.747 196.501 132.749 196.417 132.753L133.247 134.718C127.05 139.746 74.3236 187.48 193.083 270.429L193.419 270.667L193.755 270.425C313.809 185.143 258.485 137.895 253.305 133.847L196.989 132.749C196.905 132.747 196.824 132.744 196.742 132.741Z" fill="white"/>
<path d="M107.657 137.134C108.184 136.542 108.696 135.987 109.19 135.467L94.2402 135.932C87.4141 142.14 70.1986 160.828 70.5638 191.192C70.966 224.647 93.404 279.733 196.763 353.537C200.531 350.801 121.163 289.697 93.7681 205.082C86.1821 181.655 91.1991 155.612 107.657 137.134Z" fill="white"/>
<path d="M135.206 123.169C135.206 123.169 345.759 180.506 193.44 353.351C193.44 353.351 384.75 274.364 314.338 132.138L135.206 123.169Z" fill="black"/>
</svg>
