<svg width="334" height="334" viewBox="0 0 334 334" fill="none" xmlns="http://www.w3.org/2000/svg">
<path d="M250.2 102.667L163.636 100.983L163.636 100.958L163.145 100.974L162.654 100.964L162.654 100.989L76.0912 103.681C76.0912 103.681 -21.0897 174.408 162.707 302.781L162.707 303.482C162.875 303.364 163.031 303.248 163.198 303.129C163.366 303.245 163.522 303.36 163.69 303.477L163.69 302.775C347.418 172.262 250.2 102.667 250.2 102.667Z" fill="black"/>
<path d="M194.868 295.122C188.164 300.394 181.109 305.687 173.692 311.011C172.602 312.454 171.196 313.663 169.547 314.54C166.565 316.128 163.132 316.431 160.004 315.488C159.052 315.278 158.124 314.954 157.245 314.51C155.769 313.767 154.457 312.777 153.373 311.602C77.0127 257.833 38.1494 206.343 37.8597 158.548C37.6056 116.688 67.4547 94.4883 68.7308 93.5571C70.782 92.0631 73.2375 91.222 75.7703 91.1432L161.551 88.4748C162.007 88.4332 162.464 88.4157 162.924 88.4228L163.353 88.418C163.825 88.4046 164.294 88.4188 164.763 88.4604L250.517 90.129C253.048 90.177 255.502 90.9903 257.556 92.4609C258.827 93.3704 288.69 115.23 288.46 157.091C288.222 200.093 256.764 246.451 194.868 295.122ZM163.192 287.71C245.489 227.623 263.191 183.65 263.339 157.09C263.465 134.405 251.058 120.306 245.488 115.123L163.319 113.524C163.26 113.524 163.196 113.522 163.133 113.519C163.082 113.524 163.028 113.525 162.974 113.526L80.8174 116.082C75.2034 121.383 62.6716 135.816 62.9817 158.723C63.3416 185.21 81.2337 228.852 163.192 287.71Z" fill="white"/>
<g opacity="0.5">
<path d="M78.0367 157.501C77.7392 135.605 89.1606 121.476 95.0726 115.637L80.8179 116.08C75.2053 121.385 62.6737 135.815 62.985 158.722C63.3451 185.213 81.2359 228.856 163.194 287.712C166.037 285.636 79.5491 220.847 78.0367 157.501Z" fill="white"/>
</g>
<path d="M163.134 113.519C163.081 113.52 163.026 113.521 162.975 113.525L111.829 115.116C103.477 123.217 77.4316 157.362 157.527 213.305L157.774 213.481L158.021 213.303C239.006 155.775 211.403 121.798 203.379 114.304L163.32 113.524C163.256 113.522 163.197 113.522 163.134 113.519Z" fill="white"/>
<g opacity="0.3">
<path d="M141.774 111.406C141.774 111.406 252.739 169.577 160.508 289.865C160.508 289.865 290.7 224.642 266.951 126.559C266.951 126.559 216.293 71.9047 141.774 111.406Z" fill="white"/>
</g>
</svg>
