<svg width="403" height="403" viewBox="0 0 403 403" fill="none" xmlns="http://www.w3.org/2000/svg">
<path d="M303.815 122.282L197.302 120.21L197.302 120.179L196.697 120.198L196.093 120.186L196.093 120.216L89.5814 123.529C89.5814 123.529 -29.9954 210.555 196.158 368.514L196.158 369.376C196.365 369.23 196.557 369.087 196.763 368.942C196.969 369.085 197.162 369.226 197.368 369.369L197.368 368.506C423.438 207.915 303.815 122.282 303.815 122.282Z" fill="black"/>
<path d="M234.009 356.78C225.658 363.346 216.869 369.936 207.608 376.575C206.469 378.176 204.962 379.522 203.163 380.465C201.157 381.519 198.949 381.994 196.772 381.902C194.592 382.018 192.385 381.57 190.379 380.544C188.575 379.619 187.06 378.29 185.922 376.7C93.0503 311.213 45.7858 248.749 45.4351 191.008C45.1329 140.972 80.6885 114.517 82.2217 113.405C84.2729 111.911 86.7285 111.07 89.2613 110.991L194.907 107.706C195.399 107.655 195.895 107.635 196.392 107.643L196.99 107.639C197.494 107.626 197.996 107.641 198.493 107.686L304.13 109.739C306.661 109.787 309.116 110.601 311.169 112.071C312.685 113.157 348.272 139.207 347.997 189.246C347.71 241.235 309.392 297.504 234.009 356.78ZM196.76 353.537C300.454 278.264 322.693 222.778 322.876 189.247C323.043 159.192 305.93 140.821 299.163 134.739L196.986 132.749C196.893 132.75 196.799 132.746 196.705 132.742C196.607 132.747 196.51 132.75 196.413 132.754L94.2362 135.93C87.4087 142.139 70.1953 160.83 70.5601 191.192C70.9629 224.647 93.3976 279.731 196.76 353.537Z" fill="white"/>
<g opacity="0.5">
<path d="M85.6104 189.969C85.259 160.734 101.178 142.358 108.457 135.488L94.2354 135.93C87.4092 142.138 70.1937 160.826 70.5589 191.191C70.9612 224.645 93.3991 279.731 196.759 353.535C199.594 351.476 93.7181 265.02 85.6104 189.969Z" fill="white"/>
</g>
<path d="M196.702 132.741C196.608 132.748 196.512 132.75 196.415 132.754L133.746 134.702C127.392 139.937 80.0834 184.127 189.342 260.439L189.654 260.659L189.966 260.435C302.579 180.439 248.763 136.535 245.031 133.685L196.989 132.748C196.892 132.748 196.797 132.745 196.702 132.741Z" fill="white"/>
<g opacity="0.3">
<path d="M184.431 130.42C184.431 130.42 296.293 217.179 192.728 356.994C192.728 356.994 371.498 273.975 323.909 144.633C323.909 144.633 291.578 104.963 184.431 130.42Z" fill="white"/>
</g>
</svg>
