<svg width="670" height="599" viewBox="0 0 670 599" fill="none" xmlns="http://www.w3.org/2000/svg">
<path d="M469.479 448.721C552.087 366.114 552.087 232.181 469.48 149.573C386.873 66.9663 252.94 66.9666 170.332 149.574C87.7245 232.182 87.7242 366.115 170.331 448.722C252.939 531.329 386.872 531.329 469.479 448.721Z" fill="black"/>
<path d="M319.822 525.269C260.799 525.269 205.095 502.735 162.598 461.568C119.214 419.542 94.7931 363.14 93.8311 302.755C91.8461 178.087 191.656 75.0452 316.321 73.0632C376.626 72.0282 433.865 94.7092 477.246 136.735C520.63 178.756 545.051 235.158 546.013 295.548C547.998 420.216 448.188 523.258 323.52 525.24C322.291 525.259 321.05 525.269 319.822 525.269ZM320.008 102.207C318.934 102.207 317.862 102.217 316.785 102.231C208.206 103.96 121.275 193.706 123.006 302.285C123.841 354.883 145.113 404.009 182.896 440.61C220.684 477.212 270.425 496.753 323.057 496.069C431.639 494.34 518.57 404.594 516.839 296.015C516.002 243.412 494.732 194.291 456.946 157.69C419.935 121.841 371.414 102.207 320.008 102.207Z" fill="white"/>
<g opacity="0.5">
<path d="M458.639 155.944C421.173 119.651 372.049 99.7751 320.011 99.7751C318.921 99.7751 317.838 99.7841 316.748 99.8011C286.649 100.28 257.679 107.377 231.483 120.358C211.334 130.342 192.824 143.804 176.715 160.434C174.655 162.561 172.667 164.739 170.713 166.94C137.529 204.313 119.772 252.039 120.572 302.324C121.489 359.931 146.892 411.508 186.678 447.311C155.377 412.715 135.96 367.113 135.161 316.912C134.392 268.604 150.783 222.678 181.491 186.003C191.642 186.612 206.575 180.682 220.482 169.601C234.31 158.583 243.406 145.436 245.154 135.426C271.592 122.152 300.882 114.873 331.337 114.389C332.427 114.372 333.509 114.363 334.599 114.363C384.243 114.363 431.21 132.491 467.958 165.667C464.959 162.349 461.882 159.085 458.639 155.944Z" fill="white"/>
</g>
<g opacity="0.5">
<path d="M263.902 256.269C270.224 264.905 273.507 275.801 272.256 287.254C269.77 309.946 250.492 326.812 228.168 326.812C226.563 326.812 224.944 326.724 223.31 326.546C215.511 325.693 208.264 322.826 202.087 318.33C202.479 318.864 202.836 319.416 203.253 319.936C210.673 329.182 221.251 334.983 233.035 336.272C234.669 336.45 236.288 336.538 237.893 336.538C260.217 336.538 279.495 319.673 281.981 296.98C283.771 280.605 276.348 265.335 263.902 256.269Z" fill="white"/>
</g>
<g opacity="0.5">
<path d="M405.172 277.737C402.946 274.965 400.321 272.636 397.422 270.755C401.513 277.067 403.301 284.529 402.472 292.107C401.52 300.814 397.232 308.628 390.403 314.111C384.524 318.831 377.368 321.336 369.938 321.336C368.734 321.336 367.523 321.272 366.31 321.139C361.139 320.574 356.296 318.806 352.055 316.053C352.664 316.992 353.319 317.909 354.029 318.793C359.511 325.624 367.328 329.912 376.035 330.865C377.248 330.998 378.459 331.062 379.663 331.062C387.093 331.062 394.249 328.557 400.128 323.837C406.957 318.354 411.245 310.54 412.197 301.833C413.15 293.126 410.655 284.568 405.172 277.737Z" fill="white"/>
</g>
<g opacity="0.5">
<path d="M361.714 186.078C362.151 177.924 359.385 170.089 353.926 164.017C351.977 161.848 349.759 160.011 347.353 158.507C350.687 163.803 352.33 169.974 351.988 176.352C351.553 184.506 347.968 192.002 341.894 197.461C336.236 202.545 329.048 205.292 321.5 205.292C320.944 205.292 320.389 205.278 319.831 205.249C314.59 204.968 309.63 203.371 305.299 200.664C306.227 202.138 307.262 203.557 308.45 204.879C313.906 210.953 321.402 214.538 329.556 214.975C330.114 215.004 330.67 215.018 331.225 215.018C338.773 215.018 345.961 212.271 351.619 207.187C357.694 201.727 361.279 194.231 361.714 186.078Z" fill="white"/>
</g>
<g opacity="0.3">
<path d="M303.839 500.929C420.65 499.069 513.836 402.868 511.976 286.057C510.739 208.338 467.709 141.137 404.656 105.385C406.913 106.373 409.148 107.402 411.364 108.465C399.95 102.983 387.993 98.4582 375.567 95.0762C418.152 133.059 445.349 188.032 446.329 249.586C448.189 366.397 355.003 462.598 238.192 464.458C217.751 464.783 197.964 462.14 179.18 457.027C190.513 467.136 202.959 476.006 216.269 483.51C243.065 495.164 272.716 501.425 303.839 500.929Z" fill="white"/>
</g>
<path d="M254.344 308.649C268.827 294.166 268.827 270.684 254.344 256.2C239.861 241.717 216.379 241.717 201.896 256.2C187.412 270.684 187.412 294.166 201.896 308.649C216.379 323.132 239.861 323.132 254.344 308.649Z" fill="black"/>
<path d="M228.228 326.812C226.595 326.812 224.954 326.724 223.309 326.543C211.524 325.254 200.948 319.453 193.526 310.21C186.107 300.967 182.728 289.385 184.017 277.603C186.678 253.277 208.636 235.616 232.962 238.306C257.288 240.972 274.913 262.93 272.254 287.251C270.965 299.038 265.164 309.614 255.919 317.036C247.964 323.423 238.282 326.812 228.228 326.812ZM228.113 252.627C213.125 252.627 200.183 263.95 198.518 279.185C197.654 287.1 199.919 294.873 204.902 301.08C209.882 307.281 216.985 311.178 224.895 312.042C232.8 312.921 240.581 310.646 246.787 305.66C252.993 300.68 256.887 293.58 257.751 285.67C259.536 269.337 247.705 254.596 231.374 252.809C230.279 252.686 229.19 252.627 228.113 252.627Z" fill="white"/>
<path d="M385.806 308.422C396.787 299.607 398.543 283.558 389.727 272.577C380.912 261.596 364.864 259.84 353.882 268.655C342.901 277.471 341.145 293.519 349.961 304.5C358.776 315.482 374.825 317.238 385.806 308.422Z" fill="black"/>
<path d="M369.896 321.333C368.709 321.333 367.516 321.27 366.312 321.138C348.336 319.17 335.313 302.945 337.279 284.976C338.231 276.265 342.518 268.452 349.349 262.969C356.18 257.481 364.732 254.995 373.443 255.943C391.417 257.911 404.439 274.136 402.474 292.105V292.11C400.638 308.872 386.392 321.333 369.896 321.333ZM369.839 270.332C365.713 270.332 361.743 271.724 358.479 274.346C354.687 277.388 352.307 281.724 351.78 286.558C350.689 296.538 357.918 305.542 367.896 306.636C377.874 307.715 386.875 300.493 387.972 290.523C389.063 280.543 381.834 271.539 371.856 270.445C371.18 270.372 370.508 270.332 369.839 270.332Z" fill="white"/>
<path d="M344.612 176.972C345.885 164.18 336.547 152.779 323.756 151.507C310.964 150.234 299.563 159.572 298.29 172.363C297.018 185.155 306.356 196.556 319.147 197.829C331.939 199.101 343.34 189.763 344.612 176.972Z" fill="black"/>
<path d="M321.478 205.274C313.099 205.274 304.752 201.861 298.724 195.157C298.724 195.152 298.722 195.152 298.722 195.152C287.462 182.613 288.497 163.248 301.032 151.983C313.576 140.713 332.939 141.754 344.201 154.293C349.66 160.362 352.424 168.199 351.989 176.354C351.554 184.508 347.968 192.003 341.896 197.457C336.065 202.696 328.758 205.274 321.478 205.274ZM309.576 185.406C315.472 191.964 325.599 192.501 332.144 186.607C335.32 183.756 337.193 179.835 337.42 175.572C337.647 171.309 336.202 167.218 333.35 164.039C327.459 157.486 317.334 156.954 310.782 162.833C304.229 168.721 303.687 178.848 309.576 185.406Z" fill="white"/>
<g opacity="0.3">
<path d="M254.344 308.649C268.827 294.166 268.827 270.684 254.344 256.2C239.861 241.717 216.379 241.717 201.896 256.2C187.412 270.684 187.412 294.166 201.896 308.649C216.379 323.132 239.861 323.132 254.344 308.649Z" fill="white"/>
</g>
<g opacity="0.3">
<path d="M385.806 308.422C396.787 299.607 398.543 283.558 389.727 272.577C380.912 261.596 364.864 259.84 353.882 268.655C342.901 277.471 341.145 293.519 349.961 304.5C358.776 315.482 374.825 317.238 385.806 308.422Z" fill="white"/>
</g>
<g opacity="0.3">
<path d="M344.612 176.972C345.885 164.181 336.547 152.78 323.756 151.507C310.964 150.234 299.563 159.572 298.29 172.364C297.018 185.155 306.356 196.556 319.147 197.829C331.939 199.101 343.34 189.764 344.612 176.972Z" fill="white"/>
</g>
<path d="M513.69 216.846C513.69 216.846 647.292 201.304 547.516 281.399C547.516 281.399 403.091 394.256 97.1222 417.011C62.9492 419.553 42.8122 378.398 66.3822 353.524C79.5982 339.577 98.4332 328.009 117.107 322.888L114.146 320.136C114.146 320.136 50.2771 344.054 14.8621 379.234C-6.88385 400.836 -3.51683 428.297 16.8482 447.468C27.8032 457.781 42.2141 463.547 57.1701 465.194C131.829 473.418 281.715 472.204 478.095 380.727C529.486 356.788 576.724 324.632 617.804 285.56C677.081 229.181 729.445 166.145 513.69 216.846Z" fill="white"/>
</svg>
