<svg width="1938" height="2337" viewBox="0 0 1938 2337" fill="none" xmlns="http://www.w3.org/2000/svg">
<path d="M1373.12 713.773C1354.29 701.498 1329.92 701.354 1311.18 713.957C1278.21 736.126 1230.63 782.192 1230.66 863.443L1230.87 1650.76L1339.62 1650.13L1344.81 1648.97L1453.57 1648.33L1453.37 861.018C1453.34 780.236 1406.16 735.322 1373.12 713.773Z" fill="black"/>
<path d="M1462.6 1659.81C1460.04 1661.83 1456.86 1662.95 1453.58 1662.97L1346.4 1663.59L1342.76 1664.41C1341.73 1664.64 1340.68 1664.76 1339.63 1664.76L1230.87 1665.39C1222.77 1665.44 1216.21 1658.93 1216.21 1650.85L1216 863.53C1215.98 773.778 1270.54 723.716 1303.04 701.832C1326.56 686.017 1357.23 685.889 1381.18 701.506C1413.6 722.654 1467.99 771.484 1468.02 860.931L1468.23 1648.25C1468.23 1652.13 1466.68 1655.86 1463.94 1658.62C1463.51 1659.05 1463.07 1659.44 1462.6 1659.81ZM1338.03 1635.51L1341.67 1634.69C1342.7 1634.46 1343.76 1634.34 1344.81 1634.33L1438.92 1633.78L1438.71 861.104C1438.69 789.163 1398.65 747.948 1365.06 726.038C1350.97 716.852 1333.01 716.87 1319.31 726.084C1285.53 748.753 1245.29 791.037 1245.31 863.359L1245.51 1636.04L1338.03 1635.51Z" fill="white"/>
<g opacity="0.5">
<path d="M1359.79 723.126C1352.98 719.943 1345.58 718.77 1338.34 719.431C1337.73 719.792 1337.1 720.131 1336.5 720.533C1302.29 743.528 1261.55 786.317 1261.57 859.555L1261.61 1030.08L1261.61 1042.62L1261.65 1182.96L1261.65 1195.5L1261.77 1634.33L1288.58 1634.17L1288.46 1209.35C1288.46 1201.61 1294.74 1195.31 1302.48 1195.27L1438.8 1194.47L1438.8 1181.93L1288.46 1182.8L1288.43 1061.3C1288.42 1050.9 1296.86 1042.42 1307.28 1042.36L1438.76 1041.59L1438.76 1029.05L1288.42 1029.92L1288.37 859.706C1288.35 788.957 1326.36 746.65 1359.79 723.126Z" fill="white"/>
</g>
<g opacity="0.3">
<path d="M1387.94 913.603C1378.62 904.349 1366.23 899.298 1353.05 899.377C1339.88 899.452 1327.48 904.634 1318.17 914.009C1308.85 923.369 1303.73 935.771 1303.73 948.932C1303.74 976.097 1325.88 998.068 1353.08 997.91C1364.5 997.844 1375.03 993.886 1383.4 987.305C1394.96 978.213 1402.4 964.114 1402.4 948.355C1402.4 935.197 1397.26 922.853 1387.94 913.603Z" fill="white"/>
</g>
<path d="M1380.71 954.507C1388.01 933.082 1376.56 909.905 1355.15 902.74C1333.73 895.575 1310.46 907.136 1303.17 928.56C1295.87 949.985 1307.32 973.162 1328.73 980.327C1350.15 987.492 1373.42 975.932 1380.71 954.507Z" fill="#858585"/>
<path d="M1372.37 980.06C1364 986.642 1353.47 990.6 1342.04 990.668C1314.84 990.823 1292.7 968.852 1292.7 941.686C1292.69 914.523 1314.81 892.286 1342.02 892.129C1369.22 891.971 1391.36 913.944 1391.37 941.111L1391.37 941.112C1391.37 956.87 1383.93 970.969 1372.37 980.06ZM1322 915.861C1314.36 921.867 1309.44 931.176 1309.44 941.588C1309.45 959.532 1324.07 974.047 1342.04 973.941C1360.01 973.842 1374.63 959.151 1374.63 941.21L1374.62 941.211C1374.62 923.266 1359.99 908.748 1342.02 908.854C1334.48 908.898 1327.53 911.515 1322 915.861Z" fill="white"/>
<g opacity="0.5">
<path d="M1320.48 948.833C1320.47 940.141 1323.86 931.947 1330.02 925.766C1330.98 924.799 1331.99 923.902 1333.04 923.073C1338.74 918.593 1345.71 916.142 1353.06 916.101C1357.27 916.075 1361.36 916.861 1365.16 918.356C1365.13 918.323 1365.1 918.285 1365.07 918.251C1358.91 912.139 1350.73 908.803 1342.02 908.855C1334.68 908.897 1327.7 911.348 1322.01 915.827C1320.95 916.657 1319.94 917.554 1318.98 918.52C1312.83 924.702 1309.44 932.895 1309.44 941.588C1309.45 955.255 1317.94 966.911 1329.93 971.655C1324.09 965.806 1320.48 957.746 1320.48 948.833Z" fill="white"/>
</g>
<g opacity="0.3">
<path d="M1356.44 1243.15C1329.23 1243.31 1307.11 1265.55 1307.12 1292.71C1307.13 1319.87 1329.27 1341.85 1356.47 1341.69C1367.89 1341.62 1378.42 1337.66 1386.79 1331.08C1398.35 1321.99 1405.79 1307.89 1405.79 1292.14C1405.78 1264.97 1383.65 1242.99 1356.44 1243.15Z" fill="white"/>
</g>
<path d="M1371.22 1316.51C1387.21 1300.44 1387.21 1274.54 1371.2 1258.66C1355.2 1242.77 1329.26 1242.93 1313.27 1258.99C1297.28 1275.06 1297.28 1300.96 1313.29 1316.85C1329.29 1332.73 1355.23 1332.58 1371.22 1316.51Z" fill="#AAA4A4"/>
<path d="M1372.46 1326.43C1364.09 1333.01 1353.56 1336.97 1342.14 1337.04C1314.94 1337.2 1292.8 1315.22 1292.79 1288.06C1292.78 1274.9 1297.91 1262.49 1307.23 1253.13C1316.56 1243.77 1328.93 1238.58 1342.11 1238.5C1355.29 1238.43 1367.68 1243.48 1377 1252.73C1386.32 1261.98 1391.46 1274.32 1391.46 1287.48C1391.46 1303.24 1384.02 1317.34 1372.46 1326.43ZM1322.1 1262.2C1321.04 1263.03 1320.03 1263.92 1319.07 1264.89C1312.92 1271.08 1309.53 1279.27 1309.53 1287.96C1309.54 1305.91 1324.16 1320.42 1342.13 1320.31C1360.1 1320.21 1374.72 1305.53 1374.71 1287.58C1374.71 1278.89 1371.32 1270.73 1365.16 1264.62C1359 1258.51 1350.82 1255.18 1342.12 1255.23C1334.77 1255.27 1327.8 1257.72 1322.1 1262.2Z" fill="white"/>
<g opacity="0.5">
<path d="M1320.57 1295.2C1320.57 1284.79 1325.48 1275.48 1333.12 1269.48C1338.65 1265.13 1345.6 1262.51 1353.15 1262.47C1357.43 1262.44 1361.51 1263.27 1365.26 1264.76C1359.35 1258.83 1351.16 1255.17 1342.11 1255.22C1334.57 1255.27 1327.61 1257.88 1322.09 1262.23C1314.45 1268.24 1309.53 1277.55 1309.53 1287.96C1309.54 1296.65 1312.93 1304.81 1319.09 1310.92C1322.26 1314.07 1325.98 1316.47 1330.03 1318.06C1323.93 1311.96 1320.57 1303.85 1320.57 1295.2Z" fill="white"/>
</g>
<g opacity="0.3">
<path d="M1357.74 720.311C1357.02 719.967 1355.87 719.421 1355.15 719.077C1345.01 715.911 1334.07 716.518 1324.4 720.89C1356.52 744.188 1391.19 784.938 1391.21 852.326L1391.21 863.779L1239.95 864.659C1234.86 864.692 1230.83 869.246 1231.69 874.477C1232.37 878.584 1236.23 881.404 1240.41 881.38L1370.06 880.625C1381.74 880.557 1391.22 889.961 1391.22 901.63L1391.42 1627.1L1295.22 1627.66C1294.32 1627.66 1293.42 1627.76 1292.54 1627.96L1288.67 1628.83L1243.42 1629.09L1243.42 1638.15L1243.42 1634.13L1329.81 1633.63L1333.68 1632.76C1334.56 1632.57 1335.46 1632.46 1336.36 1632.46L1432.56 1631.9L1432.35 880.264L1432.35 863.54L1432.35 857.127C1432.33 784.235 1391.76 742.493 1357.74 720.311Z" fill="white"/>
</g>
<path d="M1458.52 865.885C1457.1 867.002 1455.31 867.672 1453.37 867.684L1235.51 868.952C1230.89 868.98 1227.14 865.255 1227.14 860.639C1227.14 856.016 1230.88 852.256 1235.51 852.227L1453.36 850.959C1457.99 850.931 1461.74 854.657 1461.74 859.272C1461.74 861.952 1460.48 864.343 1458.52 865.885Z" fill="white"/>
<path d="M1457.27 1027.7C1456.21 1028.54 1454.87 1029.04 1453.41 1029.05L1235.56 1030.32C1232.09 1030.34 1229.28 1027.55 1229.28 1024.08C1229.27 1020.62 1232.09 1017.8 1235.55 1017.77L1453.4 1016.51C1456.87 1016.49 1459.69 1019.28 1459.69 1022.74C1459.69 1024.75 1458.74 1026.54 1457.27 1027.7Z" fill="white"/>
<path d="M1457.31 1180.58C1456.25 1181.42 1454.91 1181.92 1453.45 1181.93L1235.6 1183.2C1232.13 1183.22 1229.32 1180.43 1229.32 1176.96C1229.31 1173.5 1232.13 1170.68 1235.59 1170.65L1453.44 1169.39C1456.91 1169.37 1459.73 1172.16 1459.73 1175.62C1459.73 1177.63 1458.78 1179.42 1457.31 1180.58Z" fill="white"/>
<path d="M1273.05 888.112C1273.05 892.627 1269.38 896.308 1264.86 896.335C1260.34 896.361 1256.67 892.723 1256.67 888.208C1256.67 883.694 1260.34 880.012 1264.86 879.985C1269.38 879.959 1273.04 883.598 1273.05 888.112Z" fill="white"/>
<path d="M1430.68 887.194C1430.68 891.709 1427.01 895.39 1422.49 895.416C1417.97 895.443 1414.31 891.804 1414.31 887.29C1414.31 882.775 1417.97 879.094 1422.49 879.067C1427.01 879.041 1430.68 882.68 1430.68 887.194Z" fill="white"/>
<path d="M1428.43 1001.12C1431.63 997.907 1431.63 992.731 1428.43 989.557C1425.23 986.383 1420.05 986.413 1416.85 989.624C1413.66 992.836 1413.66 998.012 1416.86 1001.19C1420.05 1004.36 1425.24 1004.33 1428.43 1001.12Z" fill="white"/>
<path d="M1270.79 1002.04C1273.99 998.828 1273.99 993.652 1270.79 990.478C1267.59 987.304 1262.41 987.334 1259.21 990.545C1256.02 993.756 1256.02 998.933 1259.22 1002.11C1262.41 1005.28 1267.6 1005.25 1270.79 1002.04Z" fill="white"/>
<path d="M1273.09 1052.79C1273.09 1057.31 1269.43 1060.99 1264.91 1061.02C1260.38 1061.04 1256.72 1057.4 1256.72 1052.89C1256.72 1048.37 1260.38 1044.69 1264.9 1044.67C1269.42 1044.64 1273.09 1048.28 1273.09 1052.79Z" fill="white"/>
<path d="M1430.72 1051.87C1430.72 1056.39 1427.06 1060.07 1422.54 1060.1C1418.02 1060.12 1414.35 1056.48 1414.35 1051.97C1414.35 1047.46 1418.01 1043.77 1422.53 1043.75C1427.05 1043.72 1430.72 1047.36 1430.72 1051.87Z" fill="white"/>
<path d="M1430.75 1144.57C1430.75 1149.08 1427.08 1152.76 1422.56 1152.79C1418.04 1152.81 1414.38 1149.18 1414.37 1144.66C1414.37 1140.15 1418.04 1136.47 1422.56 1136.44C1427.08 1136.41 1430.75 1140.05 1430.75 1144.57Z" fill="white"/>
<path d="M1273.11 1145.49C1273.11 1150 1269.45 1153.68 1264.93 1153.71C1260.41 1153.73 1256.74 1150.1 1256.74 1145.58C1256.74 1141.07 1260.41 1137.38 1264.93 1137.36C1269.45 1137.33 1273.11 1140.97 1273.11 1145.49Z" fill="white"/>
<path d="M1430.76 1208.87C1430.76 1213.38 1427.1 1217.06 1422.58 1217.09C1418.06 1217.12 1414.39 1213.48 1414.39 1208.96C1414.39 1204.45 1418.05 1200.77 1422.57 1200.74C1427.1 1200.71 1430.76 1204.35 1430.76 1208.87Z" fill="white"/>
<path d="M1273.13 1209.79C1273.13 1214.3 1269.47 1217.98 1264.95 1218.01C1260.43 1218.03 1256.76 1214.4 1256.76 1209.88C1256.76 1205.37 1260.42 1201.69 1264.94 1201.66C1269.46 1201.63 1273.13 1205.27 1273.13 1209.79Z" fill="white"/>
<path d="M657.085 719.56C638.264 707.285 613.887 707.142 595.145 719.745C562.177 741.913 514.604 787.979 514.626 869.231L514.834 1656.55L623.593 1655.92L628.783 1654.75L737.543 1654.12L737.334 866.804C737.314 786.023 690.129 741.109 657.085 719.56Z" fill="black"/>
<path d="M746.561 1665.6C744.075 1667.56 740.946 1668.73 737.545 1668.75L630.366 1669.38L626.721 1670.19C625.693 1670.42 624.644 1670.54 623.594 1670.55L514.838 1671.18C506.745 1671.23 500.183 1664.71 500.181 1656.64L499.97 869.316C499.947 779.553 554.501 729.483 587.008 707.619C610.524 691.803 641.195 691.676 665.145 707.295C697.568 728.438 751.964 777.266 751.988 866.718L752.193 1654.03C752.196 1658.72 749.992 1662.9 746.561 1665.6ZM622.007 1641.29L625.652 1640.47C626.68 1640.25 627.729 1640.13 628.779 1640.12L722.883 1639.57L722.684 866.891C722.662 794.946 682.617 753.731 649.026 731.826C634.938 722.637 616.983 722.655 603.287 731.868C569.489 754.571 529.26 796.821 529.276 869.144L529.484 1641.83L622.007 1641.29Z" fill="white"/>
<g opacity="0.5">
<path d="M643.758 728.915C636.95 725.732 629.551 724.558 622.311 725.219C621.695 725.58 621.07 725.919 620.471 726.322C586.255 749.316 545.516 792.106 545.535 865.343L545.58 1035.87L545.583 1048.41L545.62 1188.75L545.624 1201.29L545.741 1640.12L572.547 1639.96L572.434 1215.14C572.432 1207.4 578.706 1201.1 586.448 1201.06L722.768 1200.26L722.765 1187.72L572.427 1188.59L572.394 1067.09C572.392 1056.69 580.833 1048.21 591.248 1048.15L722.726 1047.38L722.723 1034.84L572.386 1035.71L572.34 865.495C572.322 794.745 610.33 752.439 643.758 728.915Z" fill="white"/>
</g>
<g opacity="0.3">
<path d="M671.91 919.39C662.59 910.136 650.2 905.085 637.023 905.165C623.847 905.239 611.45 910.421 602.142 919.796C592.824 929.157 587.697 941.559 587.699 954.719C587.71 981.884 609.847 1003.86 637.049 1003.7C648.473 1003.63 658.999 999.674 667.369 993.092C678.932 984 686.374 969.902 686.372 954.142C686.367 940.985 681.232 928.64 671.91 919.39Z" fill="white"/>
</g>
<path d="M655.063 975.919C671.056 959.85 671.049 933.948 655.047 918.065C639.045 902.183 613.108 902.334 597.114 918.403C581.121 934.472 581.128 960.374 597.13 976.256C613.132 992.139 639.069 991.988 655.063 975.919Z" fill="#858585"/>
<path d="M656.332 985.847C647.962 992.429 637.441 996.387 626.017 996.456C598.815 996.614 576.675 974.64 576.664 947.473C576.661 920.306 598.793 898.08 625.989 897.916C653.194 897.761 675.329 919.733 675.336 946.897C675.341 962.654 667.895 976.755 656.332 985.847ZM605.965 921.648C598.327 927.655 593.409 936.967 593.41 947.375C593.417 965.319 608.042 979.836 626.011 979.73C643.975 979.628 658.595 964.942 658.592 946.996C658.586 929.052 643.962 914.537 625.994 914.644C618.447 914.685 611.494 917.301 605.965 921.648Z" fill="white"/>
<g opacity="0.5">
<path d="M604.445 954.622C604.443 945.929 607.831 937.736 613.985 931.554C614.947 930.587 615.956 929.69 617.011 928.861C622.708 924.382 629.681 921.931 637.026 921.889C641.243 921.863 645.332 922.649 649.133 924.144C649.1 924.111 649.072 924.073 649.038 924.04C642.881 917.928 634.696 914.591 625.991 914.645C618.645 914.686 611.672 917.137 605.976 921.616C604.921 922.446 603.911 923.344 602.949 924.31C596.795 930.491 593.407 938.685 593.409 947.377C593.414 961.044 601.911 972.7 613.896 977.444C608.063 971.595 604.448 963.533 604.445 954.622Z" fill="white"/>
</g>
<g opacity="0.3">
<path d="M640.413 1248.94C613.204 1249.09 591.081 1271.33 591.091 1298.49C591.098 1325.66 613.235 1347.64 640.439 1347.48C651.863 1347.41 662.389 1343.45 670.758 1336.87C682.32 1327.78 689.764 1313.68 689.761 1297.92C689.754 1270.75 667.617 1248.78 640.413 1248.94Z" fill="white"/>
</g>
<path d="M659.346 1317.23C672.554 1298.81 668.371 1273.27 650.004 1260.19C631.637 1247.1 606.04 1251.42 592.832 1269.83C579.625 1288.25 583.807 1313.79 602.174 1326.87C620.541 1339.96 646.138 1335.64 659.346 1317.23Z" fill="#858585"/>
<path d="M656.427 1332.22C648.057 1338.8 637.531 1342.76 626.108 1342.82C598.902 1342.98 576.766 1321.01 576.759 1293.84C576.746 1266.68 598.872 1244.45 626.079 1244.29C653.284 1244.13 675.424 1266.1 675.43 1293.27C675.434 1309.03 667.988 1323.13 656.427 1332.22ZM606.059 1268.02C598.421 1274.03 593.501 1283.33 593.503 1293.75C593.509 1311.69 608.133 1326.21 626.102 1326.1C644.073 1326 658.683 1311.31 658.685 1293.37C658.679 1275.42 644.053 1260.91 626.084 1261.01C618.543 1261.06 611.587 1263.67 606.059 1268.02Z" fill="white"/>
<g opacity="0.5">
<path d="M604.537 1300.99C604.535 1290.58 609.452 1281.27 617.091 1275.26C622.618 1270.92 629.573 1268.3 637.118 1268.26C641.4 1268.23 645.481 1269.06 649.23 1270.54C643.319 1264.62 635.127 1260.96 626.083 1261.01C618.539 1261.06 611.583 1263.67 606.056 1268.02C598.418 1274.02 593.5 1283.34 593.502 1293.75C593.505 1302.44 596.897 1310.59 603.054 1316.7C606.228 1319.85 609.948 1322.25 613.995 1323.84C607.901 1317.74 604.54 1309.64 604.537 1300.99Z" fill="white"/>
</g>
<g opacity="0.3">
<path d="M641.707 726.098C640.987 725.755 639.842 725.208 639.123 724.865C628.98 721.699 618.039 722.306 608.37 726.677C640.49 749.976 675.162 790.725 675.178 858.113L675.181 869.566L523.916 870.446C518.832 870.479 514.804 875.033 515.662 880.264C516.335 884.371 520.205 887.191 524.376 887.167L654.029 886.412C665.715 886.344 675.189 895.748 675.192 907.417L675.386 1632.88L579.186 1633.44C578.288 1633.45 577.392 1633.55 576.514 1633.75L572.642 1634.61L527.39 1634.88L527.392 1643.93L527.391 1639.92L613.781 1639.41L617.649 1638.55C618.53 1638.35 619.429 1638.25 620.331 1638.24L716.525 1637.68L716.324 886.05L716.319 869.327L716.317 862.914C716.299 790.022 675.73 748.28 641.707 726.098Z" fill="white"/>
</g>
<path d="M742.489 871.673C741.069 872.789 739.281 873.46 737.34 873.472L519.483 874.738C514.857 874.767 511.107 871.041 511.107 866.425C511.104 861.807 514.855 858.043 519.476 858.013L737.333 856.747C741.959 856.719 745.709 860.444 745.708 865.06C745.71 867.741 744.45 870.131 742.489 871.673Z" fill="white"/>
<path d="M741.241 1033.48C740.175 1034.32 738.835 1034.83 737.379 1034.84L519.527 1036.1C516.058 1036.12 513.245 1033.33 513.244 1029.87C513.241 1026.4 516.054 1023.58 519.52 1023.56L737.373 1022.29C740.841 1022.27 743.654 1025.06 743.655 1028.53C743.658 1030.54 742.71 1032.33 741.241 1033.48Z" fill="white"/>
<path d="M741.283 1186.36C740.217 1187.2 738.877 1187.71 737.421 1187.72L519.567 1188.99C516.098 1189.01 513.285 1186.21 513.284 1182.75C513.281 1179.28 516.098 1176.46 519.56 1176.44L737.415 1175.17C740.883 1175.15 743.696 1177.94 743.698 1181.41C743.7 1183.42 742.752 1185.21 741.283 1186.36Z" fill="white"/>
<path d="M557.015 893.9C557.016 898.415 553.352 902.096 548.831 902.123C544.31 902.149 540.644 898.51 540.643 893.996C540.641 889.481 544.305 885.8 548.827 885.773C553.347 885.747 557.013 889.385 557.015 893.9Z" fill="white"/>
<path d="M714.647 892.982C714.648 897.497 710.984 901.178 706.463 901.205C701.942 901.231 698.276 897.593 698.275 893.078C698.273 888.563 701.937 884.882 706.458 884.855C710.979 884.83 714.646 888.468 714.647 892.982Z" fill="white"/>
<path d="M714.675 1001.14C714.676 1005.65 711.013 1009.34 706.492 1009.36C701.971 1009.39 698.305 1005.75 698.303 1001.24C698.302 996.72 701.966 993.039 706.487 993.013C711.008 992.987 714.674 996.625 714.675 1001.14Z" fill="white"/>
<path d="M557.043 1002.06C557.044 1006.57 553.38 1010.25 548.859 1010.28C544.339 1010.31 540.672 1006.67 540.671 1002.15C540.67 997.639 544.333 993.958 548.854 993.931C553.375 993.904 557.041 997.543 557.043 1002.06Z" fill="white"/>
<path d="M554.746 1064.36C557.942 1061.15 557.941 1055.97 554.743 1052.8C551.545 1049.62 546.362 1049.65 543.165 1052.86C539.969 1056.08 539.971 1061.25 543.169 1064.43C546.366 1067.6 551.55 1067.57 554.746 1064.36Z" fill="white"/>
<path d="M712.386 1063.44C715.582 1060.23 715.581 1055.05 712.383 1051.88C709.185 1048.7 704.002 1048.73 700.806 1051.95C697.61 1055.16 697.611 1060.33 700.809 1063.51C704.007 1066.68 709.19 1066.65 712.386 1063.44Z" fill="white"/>
<path d="M714.715 1150.35C714.716 1154.87 711.052 1158.55 706.531 1158.58C702.01 1158.6 698.345 1154.96 698.343 1150.45C698.341 1145.93 702.006 1142.25 706.527 1142.23C711.048 1142.2 714.714 1145.84 714.715 1150.35Z" fill="white"/>
<path d="M557.082 1151.27C557.083 1155.79 553.419 1159.47 548.898 1159.49C544.377 1159.52 540.711 1155.88 540.71 1151.37C540.708 1146.85 544.372 1143.17 548.893 1143.14C553.414 1143.12 557.081 1146.76 557.082 1151.27Z" fill="white"/>
<path d="M714.733 1214.66C714.735 1219.17 711.07 1222.85 706.549 1222.88C702.028 1222.9 698.363 1219.27 698.361 1214.75C698.359 1210.24 702.024 1206.55 706.545 1206.53C711.066 1206.5 714.733 1210.14 714.733 1214.66Z" fill="white"/>
<path d="M557.099 1215.57C557.101 1220.09 553.436 1223.77 548.915 1223.8C544.395 1223.82 540.729 1220.18 540.727 1215.67C540.726 1211.15 544.39 1207.47 548.911 1207.45C553.432 1207.42 557.098 1211.06 557.099 1215.57Z" fill="white"/>
<path d="M1025.41 75.4207C1000.69 58.4329 968.113 58.6223 943.405 75.898C873.921 124.481 740.489 244.163 740.543 446.607L740.879 1716.05L1228.8 1713.21L1228.46 443.766C1228.41 241.322 1094.91 123.194 1025.41 75.4207Z" fill="black"/>
<path d="M1237.82 1724.7C1235.33 1726.65 1232.2 1727.83 1228.8 1727.85L740.883 1730.69C736.996 1730.71 733.27 1729.19 730.521 1726.46C727.772 1723.73 726.229 1720.02 726.229 1716.14L725.889 446.694C725.834 240.943 856.902 118.573 935.044 63.9264C964.561 43.2881 1004.23 43.0556 1033.76 63.349C1111.92 117.074 1243.06 237.921 1243.11 443.679L1243.45 1713.12C1243.45 1717.81 1241.25 1722 1237.82 1724.7ZM755.529 1701.34L1214.14 1698.66L1213.81 443.852C1213.76 251.416 1090.51 137.98 1017.05 87.4897C997.219 73.8579 971.59 74.0075 951.764 87.8693C878.322 139.193 755.144 254.085 755.194 446.521L755.529 1701.34Z" fill="white"/>
<g opacity="0.5">
<path d="M753.182 1008.74L753.186 1021.29L1215.99 1018.57L1215.99 1006.03L753.182 1008.74Z" fill="white"/>
</g>
<g opacity="0.5">
<path d="M753.083 642.44L753.086 654.985L1215.89 652.27L1215.89 639.725L753.083 642.44Z" fill="white"/>
</g>
<g opacity="0.5">
<path d="M996.923 242.891C993.46 242.916 990.645 245.733 990.644 249.199L990.723 539.579C990.721 543.043 993.535 545.833 997.003 545.816C998.459 545.806 999.8 545.303 1000.87 544.465C1002.33 543.31 1003.28 541.517 1003.28 539.509L1003.2 249.128C1003.21 245.662 1000.39 242.872 996.923 242.891Z" fill="white"/>
</g>
<g opacity="0.3">
<path d="M1203.43 448.34C1203.38 254.951 1079.57 140.987 1005.78 90.2681C991.606 80.5305 974.588 77.5798 958.649 81.3865C958.654 81.384 958.659 81.3822 958.664 81.3804C955.887 82.7462 953.179 84.3359 950.57 86.16C947.281 88.4592 943.863 90.9314 940.391 93.4863C1014.51 145.283 1134.71 258.681 1134.76 449.263L1135.1 1701.22L1216.24 1700.75L1203.76 1700.82L1203.43 448.34Z" fill="white"/>
</g>
<g opacity="0.6">
<path d="M1010.14 81.0765C1003.6 77.9365 996.651 76.0924 989.625 75.5032C984.471 77.2956 979.471 79.7615 974.798 83.0297C901.018 134.613 777.274 250.019 777.33 443.403L777.662 1700.31L1216.24 1697.75L1216.23 1688.48L823.539 1690.77L823.207 433.863C823.152 249.391 935.722 135.924 1010.14 81.0765Z" fill="white"/>
</g>
<path d="M1232.64 641.771C1231.58 642.608 1230.23 643.112 1228.78 643.121L740.949 645.962C737.48 645.983 734.667 643.19 734.665 639.727C734.658 636.258 737.477 633.439 740.941 633.417L1228.77 630.576C1232.24 630.556 1235.05 633.348 1235.05 636.811C1235.06 638.822 1234.11 640.615 1232.64 641.771Z" fill="white"/>
<path d="M1232.74 1004.07C1231.67 1004.91 1230.33 1005.41 1228.88 1005.42L741.043 1008.26C737.575 1008.29 734.761 1005.49 734.76 1002.03C734.756 998.562 737.573 995.741 741.036 995.72L1228.87 992.878C1232.34 992.857 1235.15 995.649 1235.15 999.113C1235.15 1001.12 1234.21 1002.92 1232.74 1004.07Z" fill="white"/>
<g opacity="0.2">
<path d="M1429.08 1434.79C1428.85 1434.61 1428.62 1434.44 1428.38 1434.28C1425.6 1432.39 1422.85 1430.49 1420.14 1428.58C1328.27 1364 1262.6 1269.56 1231.97 1162.65L1232.1 1652.37L1340.86 1651.74L1346.05 1650.58L1454.81 1649.94L1454.76 1458.17C1440.57 1443.97 1430.63 1436.01 1429.08 1434.79Z" fill="white"/>
</g>
<path d="M1387.88 1449.7C1385.04 1447.78 1382.24 1445.84 1379.47 1443.89C1245.07 1349.4 1166.63 1194.25 1166.59 1029.67L1166.52 800.462C1166.5 716.322 1130.58 646.332 1090.57 594.463C1036.52 524.394 930.662 525.215 877.166 596.307C837.834 648.576 802.646 718.764 802.669 802.581L802.729 1031.79C802.773 1196.36 724.417 1352.44 590.066 1448.49C587.298 1450.47 584.497 1452.44 581.66 1454.4C581.66 1454.4 428.067 1576.96 428.121 1778.82L977.366 1775.63L992.344 1775.54L1541.59 1772.34C1541.54 1570.48 1387.88 1449.7 1387.88 1449.7Z" fill="#373737"/>
<path d="M1550.62 1783.82C1548.05 1785.84 1544.88 1786.96 1541.59 1786.97L428.124 1793.46C420.032 1793.51 413.47 1786.99 413.47 1778.91C413.414 1572.35 566.054 1448.17 572.551 1442.99C572.843 1442.78 573.092 1442.58 573.366 1442.38C576.137 1440.47 578.875 1438.54 581.579 1436.61C710.963 1344.1 788.119 1192.83 788.079 1031.88L788.016 802.668C787.997 728.253 814.056 655.879 865.469 587.555C893.713 550.037 936.705 528.262 983.443 527.819C1030.29 527.374 1073.58 548.395 1102.2 585.494C1154.59 653.403 1181.16 725.698 1181.18 800.376L1181.24 1029.59C1181.28 1190.55 1258.56 1340.94 1387.95 1431.91C1390.66 1433.82 1393.39 1435.71 1396.17 1437.59C1396.44 1437.78 1396.72 1437.98 1396.98 1438.19C1403.48 1443.3 1556.19 1565.7 1556.24 1772.26C1556.24 1776.14 1554.7 1779.87 1551.95 1782.63C1551.53 1783.06 1551.08 1783.45 1550.62 1783.82ZM443.055 1764.11L1526.65 1757.8C1519.63 1578.78 1386.82 1467.77 1379.1 1461.49C1376.37 1459.62 1373.66 1457.75 1370.98 1455.87C1233.87 1359.47 1151.98 1200.18 1151.93 1029.76L1151.87 800.548C1151.85 732.455 1127.32 666.138 1078.94 603.435C1055.94 573.622 1021.18 556.724 983.559 557.086C946.049 557.44 911.531 574.916 888.865 605.056C841.376 668.163 817.304 734.59 817.321 802.495L817.384 1031.71C817.431 1202.13 735.615 1362.38 598.552 1460.37C595.88 1462.28 593.176 1464.18 590.44 1466.08C582.837 1472.37 449.975 1584.94 443.055 1764.11Z" fill="white"/>
<g opacity="0.2">
<path d="M1067.47 1497.6C1067.47 1497.6 1156.35 1737.06 1478.45 1759.76L1489.43 1772.19L1066.09 1771.84L1067.47 1497.6Z" fill="white"/>
</g>
<g opacity="0.3">
<path d="M1362.93 1458.71C1360.09 1456.78 1357.29 1454.84 1354.52 1452.9C1220.12 1358.41 1141.68 1203.25 1141.64 1038.68L1141.58 809.466C1141.55 725.326 1105.64 655.335 1065.62 603.467C1031.31 558.991 976.154 543.14 926.748 555.643C920.75 558.512 914.917 561.831 909.318 565.637C953.063 561.383 998.467 578.426 1028.2 616.97C1068.21 668.839 1104.13 738.829 1104.16 822.969L1104.22 1052.18C1104.26 1216.75 1182.7 1371.91 1317.1 1466.4C1319.87 1468.35 1322.67 1470.28 1325.51 1472.21C1325.51 1472.21 1467.94 1584.2 1478.57 1772.71L1541.59 1772.34L1516.53 1772.49C1512.09 1575.96 1362.93 1458.71 1362.93 1458.71Z" fill="white"/>
</g>
<g opacity="0.5">
<path d="M998.95 876.554C994.326 876.574 990.577 880.344 990.577 884.964L990.698 1342C990.701 1346.61 994.451 1350.34 999.075 1350.31C1001.02 1350.3 1002.81 1349.63 1004.23 1348.51C1006.19 1346.97 1007.45 1344.58 1007.45 1341.9L1007.33 884.865C1007.32 880.249 1003.57 876.526 998.95 876.554Z" fill="white"/>
</g>
<g opacity="0.5">
<path d="M983.561 557.084C946.053 557.438 911.551 574.923 888.865 605.058C841.374 668.166 817.303 734.596 817.323 802.494L817.383 1031.71C817.425 1202.13 735.634 1362.42 598.551 1460.37C595.881 1462.28 593.176 1464.19 590.441 1466.08C582.839 1472.37 449.978 1584.94 443.054 1764.1L464.628 1763.98C472.885 1585.11 605.569 1473.03 612.691 1467.16C615.442 1465.25 618.162 1463.34 620.848 1461.42C627.214 1456.87 633.447 1452.19 639.571 1447.38C764.774 1348.92 838.84 1196.29 838.799 1034.46L838.74 805.25C838.719 736.885 862.931 670.033 910.701 606.55C932.268 577.888 964.366 560.482 999.643 558.037C994.357 557.382 988.994 557.033 983.561 557.084Z" fill="white"/>
</g>
<g opacity="0.3">
<path d="M1016.7 1333.55C987.184 1333.72 959.431 1345.37 938.572 1366.33C917.707 1387.29 906.219 1415.07 906.226 1444.55L906.315 1776.04L977.366 1775.63L992.344 1775.54L1127.32 1774.75L1127.23 1443.26C1127.21 1382.41 1077.63 1333.2 1016.7 1333.55Z" fill="white"/>
</g>
<path d="M1043.42 1835.83L926.321 1836.51C903.409 1836.64 884.83 1818.2 884.824 1795.32L884.729 1437.78C884.715 1382.6 929.49 1337.62 984.738 1337.3C1039.99 1336.97 1084.79 1381.44 1084.8 1436.61L1084.89 1794.16C1084.9 1817.04 1066.33 1835.7 1043.42 1835.83Z" fill="#373737"/>
<path d="M1075.35 1835.11C1066.54 1842.04 1055.45 1846.21 1043.42 1846.28C1043.42 1846.28 1043.42 1846.28 1043.42 1846.28L926.322 1846.96C897.678 1847.13 874.365 1823.99 874.356 1795.38L874.263 1437.84C874.256 1408.36 885.742 1380.59 906.607 1359.62C927.471 1338.66 955.219 1327.02 984.735 1326.84C1014.25 1326.67 1042.01 1337.99 1062.88 1358.71C1083.76 1379.43 1095.26 1407.08 1095.27 1436.55L1095.36 1794.1C1095.37 1810.69 1087.53 1825.54 1075.35 1835.11ZM1043.42 1825.38C1060.52 1825.28 1074.43 1811.3 1074.43 1794.22L1074.33 1436.67C1074.33 1412.78 1065.01 1390.37 1048.09 1373.58C1031.16 1356.78 1008.67 1347.61 984.743 1347.75C960.816 1347.89 938.325 1357.33 921.414 1374.32C904.502 1391.31 895.19 1413.83 895.197 1437.72L895.29 1795.26C895.293 1803.53 898.522 1811.3 904.381 1817.11C910.244 1822.93 918.033 1826.11 926.317 1826.06L1043.42 1825.38L1043.42 1825.38Z" fill="white"/>
<g opacity="0.5">
<path d="M1001.02 1825.62L1000.91 1431.66C1000.91 1428.2 998.096 1425.41 994.629 1425.43C991.162 1425.44 988.354 1428.27 988.348 1431.73L988.453 1825.69L1001.02 1825.62Z" fill="white"/>
</g>
<path d="M1074.14 1432.78C1072.06 1385.29 1032.81 1347.47 984.743 1347.75C964.555 1347.87 945.389 1354.6 929.731 1366.91C926.834 1369.19 924.056 1371.66 921.415 1374.32C905.671 1390.13 896.622 1410.75 895.435 1432.8L1074.14 1432.78Z" fill="black"/>
<g opacity="0.3">
<path d="M1031.66 1824C1048.77 1823.91 1062.68 1809.93 1062.68 1792.85L1062.58 1435.3C1062.57 1391.93 1031.48 1355.88 990.404 1348C988.522 1347.89 986.653 1347.74 984.742 1347.75C972.514 1347.82 960.677 1350.36 949.752 1355.05C992.758 1361.32 1025.86 1398.19 1025.88 1442.93L1025.97 1800.48C1025.98 1809.93 1021.67 1818.38 1014.96 1824.1L1031.66 1824Z" fill="white"/>
</g>
<g opacity="0.5">
<path d="M985.374 1347.78C970.55 1350.25 956.656 1356.36 944.783 1365.69C941.886 1367.97 939.108 1370.44 936.467 1373.09C919.555 1390.09 910.244 1412.6 910.248 1436.5L910.343 1794.04C910.347 1802.32 913.574 1810.08 919.434 1815.89C925.293 1821.71 933.083 1824.88 941.37 1824.84L1051.63 1824.19C1054.17 1823.48 1056.58 1822.46 1058.82 1821.16L965.597 1821.71C957.31 1821.75 949.521 1818.58 943.661 1812.76C937.801 1806.95 934.574 1799.19 934.57 1790.91L934.475 1433.37C934.47 1409.47 943.781 1386.96 960.694 1369.96C963.335 1367.31 966.112 1364.84 969.01 1362.56C976.972 1356.3 985.886 1351.6 995.339 1348.37C992.064 1348 988.746 1347.78 985.374 1347.78Z" fill="white"/>
</g>
<path d="M733.114 1881.86L587.612 1882.71C565.885 1882.83 548.267 1865.35 548.261 1843.65L548.255 1821.62L772.438 1820.31L772.444 1842.34C772.45 1864.04 754.842 1881.73 733.114 1881.86Z" fill="#A0A0A0"/>
<path d="M765.014 1883.25C756.209 1890.17 745.136 1894.34 733.119 1894.4L733.118 1894.4L587.617 1895.25C573.755 1895.33 560.718 1890.02 550.914 1880.28C541.108 1870.55 535.707 1857.57 535.703 1843.72L535.696 1821.69C535.693 1818.37 537.017 1815.17 539.372 1812.8C541.74 1810.44 544.921 1809.1 548.253 1809.08L772.437 1807.77C779.373 1807.73 784.997 1813.31 784.999 1820.24L785.005 1842.27C785.008 1858.85 777.178 1873.68 765.014 1883.25ZM733.11 1869.32C747.881 1869.23 759.887 1857.16 759.884 1842.42L759.882 1832.93L560.817 1834.09L560.82 1843.58C560.826 1858.33 572.845 1870.25 587.609 1870.17L733.112 1869.32L733.11 1869.32Z" fill="white"/>
<g opacity="0.3">
<path d="M749.793 1865.97C750.507 1865.46 751.199 1864.92 751.863 1864.35C751.199 1864.92 750.509 1865.46 749.793 1865.97Z" fill="white"/>
</g>
<g opacity="0.3">
<path d="M758.589 1855.96C758.285 1856.52 757.946 1857.07 757.605 1857.62C757.946 1857.07 758.285 1856.53 758.589 1855.96Z" fill="white"/>
</g>
<g opacity="0.3">
<path d="M734.182 1871.35C745.051 1867.14 752.808 1856.6 752.805 1844.31L752.799 1832.73L699.187 1833.05L699.187 1832.43L699.193 1844.01C699.196 1857.01 690.539 1868.07 678.686 1871.72L733.114 1871.41C739.307 1871.37 745.037 1869.36 749.745 1866.01C745.311 1869.16 739.959 1871.1 734.182 1871.35Z" fill="white"/>
</g>
<g opacity="0.3">
<path d="M759.031 1855.04C759.284 1854.52 759.543 1854.01 759.765 1853.48C759.543 1854.01 759.283 1854.52 759.031 1855.04Z" fill="white"/>
</g>
<g opacity="0.3">
<path d="M755.946 1860.02C756.379 1859.45 756.804 1858.89 757.196 1858.29C756.804 1858.89 756.38 1859.46 755.946 1860.02Z" fill="white"/>
</g>
<g opacity="0.3">
<path d="M760.71 1850.87C760.559 1851.35 760.371 1851.82 760.196 1852.3C760.371 1851.82 760.56 1851.36 760.71 1850.87Z" fill="white"/>
</g>
<g opacity="0.3">
<path d="M754.073 1862.22C754.603 1861.66 755.119 1861.08 755.602 1860.48C755.118 1861.08 754.604 1861.66 754.073 1862.22Z" fill="white"/>
</g>
<g opacity="0.3">
<path d="M752.016 1864.21C752.64 1863.66 753.245 1863.1 753.82 1862.5C753.244 1863.09 752.641 1863.66 752.016 1864.21Z" fill="white"/>
</g>
<path d="M762.054 1821.24L555.279 1822.44C540.327 1822.53 528.202 1810.5 528.199 1795.56L528.195 1781.53L789.116 1780.01L789.12 1794.04C789.123 1808.98 777.006 1821.15 762.054 1821.24Z" fill="#A0A0A0"/>
<path d="M786.414 1825.26C779.69 1830.55 771.232 1833.73 762.054 1833.78L555.279 1834.98C544.695 1835.05 534.738 1830.99 527.252 1823.56C519.763 1816.12 515.639 1806.21 515.638 1795.64L515.633 1781.6C515.634 1774.68 521.252 1769.03 528.192 1768.99L789.113 1767.47C796.05 1767.43 801.673 1773.01 801.675 1779.94L801.678 1793.97C801.684 1806.63 795.699 1817.96 786.414 1825.26ZM540.757 1794L540.759 1795.49C540.759 1799.36 542.27 1802.99 545.011 1805.71C547.752 1808.43 551.398 1809.92 555.273 1809.9L762.05 1808.69C770.049 1808.65 776.561 1802.11 776.56 1794.12L776.561 1792.63L540.757 1794Z" fill="white"/>
<g opacity="0.5">
<path d="M621.515 1833.73L579.657 1833.98L579.66 1843.05C579.662 1850.76 582.665 1857.98 588.12 1863.39C591.211 1866.46 594.89 1868.71 598.892 1870.1L643.535 1869.84C638.451 1868.63 633.776 1866.09 629.98 1862.32C624.525 1856.91 621.521 1849.69 621.519 1841.98L621.515 1833.73Z" fill="white"/>
</g>
<g opacity="0.3">
<path d="M768.19 1794.58L768.187 1780.55L708.698 1780.89L708.701 1793.59C708.705 1808.53 696.587 1820.7 681.635 1820.79L548.385 1821.56C550.589 1822.13 552.892 1822.45 555.279 1822.44L762.054 1821.24L745.693 1821.33C758.464 1819.09 768.194 1807.95 768.19 1794.58Z" fill="white"/>
</g>
<g opacity="0.5">
<path d="M565.47 1795.65C565.471 1800.08 567.201 1804.24 570.337 1807.35C571.312 1808.32 572.408 1809.11 573.56 1809.79L613.042 1809.56C610.543 1808.78 608.227 1807.49 606.318 1805.59C603.182 1802.48 601.453 1798.33 601.451 1793.9L601.452 1793.65L565.469 1793.86L565.47 1795.65Z" fill="white"/>
</g>
<g opacity="0.3">
<path d="M1398.53 1545.57C1381.42 1528.59 1358.68 1519.32 1334.5 1519.46C1310.31 1519.6 1287.54 1529.15 1270.48 1546.32C1253.38 1563.49 1243.97 1586.26 1243.97 1610.41L1244.02 1777.84C1244.02 1783.61 1248.71 1788.26 1254.48 1788.23L1414.65 1787.3C1417 1787.29 1419.26 1786.48 1421.09 1785.04C1421.43 1784.78 1421.75 1784.5 1422.05 1784.19C1424.01 1782.22 1425.11 1779.56 1425.11 1776.78L1425.06 1609.35C1425.06 1585.2 1415.64 1562.55 1398.53 1545.57Z" fill="white"/>
</g>
<path d="M1391.14 1774.1L1230.98 1775.04L1230.93 1607.6C1230.92 1563.44 1266.76 1527.42 1310.99 1527.17C1355.22 1526.91 1391.08 1562.5 1391.09 1606.67L1391.14 1774.1Z" fill="#373737"/>
<path d="M1397.57 1782.3C1395.8 1783.7 1393.57 1784.54 1391.14 1784.55L1230.98 1785.49C1228.2 1785.5 1225.54 1784.42 1223.58 1782.47C1221.61 1780.52 1220.51 1777.87 1220.51 1775.1L1220.47 1607.67C1220.45 1557.81 1261.06 1517.01 1310.99 1516.71C1360.92 1516.43 1401.55 1556.75 1401.56 1606.61L1401.6 1774.04C1401.6 1777.39 1400.03 1780.38 1397.57 1782.3ZM1241.44 1764.52L1380.67 1763.71L1380.62 1606.73C1380.61 1568.4 1349.38 1537.39 1310.99 1537.62C1272.6 1537.84 1241.39 1569.21 1241.4 1607.54L1241.44 1764.52Z" fill="white"/>
<path d="M1380.41 1602.25C1379.33 1585.38 1372.31 1569.69 1360.22 1557.69C1347.07 1544.64 1329.59 1537.51 1310.99 1537.62C1292.4 1537.73 1274.93 1545.06 1261.77 1558.27C1249.95 1570.14 1242.96 1585.5 1241.67 1601.97L1380.41 1602.25Z" fill="black"/>
<g opacity="0.3">
<path d="M1371.45 1608.64C1371.44 1590.07 1364.2 1572.66 1351.05 1559.6C1337.9 1546.55 1320.41 1539.41 1301.82 1539.53C1298.77 1539.54 1295.76 1539.83 1292.79 1540.24C1295.16 1539.58 1297.57 1539.06 1300.01 1538.64C1294.27 1539.59 1288.69 1541.17 1283.4 1543.48C1295.27 1546.48 1306.17 1552.53 1315.07 1561.36C1328.22 1574.41 1335.46 1591.83 1335.47 1610.4L1335.51 1763.97L1371.49 1763.77L1371.45 1608.64Z" fill="white"/>
</g>
<g opacity="0.3">
<path d="M1302.43 1538.25C1303.3 1538.13 1304.17 1538.04 1305.05 1537.96C1304.17 1538.04 1303.3 1538.14 1302.43 1538.25Z" fill="white"/>
</g>
<g opacity="0.5">
<path d="M1313.05 1537.71C1299.41 1540.35 1286.86 1546.97 1276.82 1557.04C1263.68 1570.25 1256.45 1587.75 1256.45 1606.32L1256.49 1763.3L1380.67 1762.58L1380.67 1762.16L1277.42 1762.76L1277.38 1605.78C1277.37 1587.22 1284.61 1569.72 1297.75 1556.51C1305.83 1548.4 1315.56 1542.58 1326.16 1539.23C1321.89 1538.31 1317.51 1537.81 1313.05 1537.71Z" fill="white"/>
</g>
<path d="M738.735 1777.9L578.574 1778.83L578.529 1611.4C578.517 1567.24 614.361 1531.22 658.588 1530.96C702.816 1530.71 738.678 1566.3 738.69 1610.47L738.735 1777.9Z" fill="#373737"/>
<path d="M745.174 1786.1C743.4 1787.5 741.165 1788.34 738.739 1788.35L578.577 1789.29C575.8 1789.3 573.138 1788.22 571.175 1786.27C569.211 1784.32 568.107 1781.67 568.107 1778.9L568.061 1611.46C568.047 1561.61 608.654 1520.81 658.585 1520.51C682.772 1520.37 705.512 1529.64 722.619 1546.62C739.725 1563.61 749.15 1586.26 749.156 1610.41L749.201 1777.84C749.203 1781.19 747.625 1784.17 745.174 1786.1ZM589.036 1768.32L728.266 1767.51L728.224 1610.53C728.218 1591.96 720.974 1574.55 707.821 1561.49C694.669 1548.44 677.185 1541.31 658.593 1541.42C620.198 1541.64 588.987 1573.01 588.995 1611.34L589.036 1768.32Z" fill="white"/>
<g opacity="0.3">
<path d="M749.427 1546.78C732.319 1529.8 709.579 1520.52 685.393 1520.66C635.462 1520.95 594.855 1561.75 594.87 1611.62L594.916 1779.05C594.917 1781.82 596.019 1784.47 597.982 1786.42C599.947 1788.37 602.608 1789.45 605.385 1789.44L765.542 1788.5C767.972 1788.49 770.205 1787.65 771.98 1786.26C774.431 1784.33 776.007 1781.34 776.005 1777.99L775.962 1610.56C775.958 1586.41 766.534 1563.75 749.427 1546.78Z" fill="white"/>
</g>
<path d="M588.996 1611.34L589.038 1768.32L728.264 1767.51L728.223 1610.53C728.219 1591.96 720.973 1574.55 707.822 1561.49C694.669 1548.44 677.186 1541.31 658.59 1541.42C620.204 1541.64 588.987 1573.01 588.996 1611.34Z" fill="#373737"/>
<path d="M728.051 1607C727.186 1589.77 720.134 1573.71 707.823 1561.49C694.671 1548.44 677.187 1541.31 658.591 1541.42C621.934 1541.63 591.888 1570.27 589.255 1606.23L728.051 1607Z" fill="black"/>
<g opacity="0.5">
<path d="M660.774 1541.51C628.524 1547.75 604.041 1576.18 604.049 1610.12L604.092 1767.1L728.265 1766.38L728.265 1765.96L625.021 1766.56L624.978 1609.59C624.971 1578.46 645.596 1552.05 673.886 1543.06C669.615 1542.14 665.233 1541.62 660.774 1541.51Z" fill="white"/>
</g>
<g opacity="0.3">
<path d="M1184.13 257.701L790.703 259.991C786.085 260.011 782.328 263.778 782.331 268.402C782.333 273.018 786.084 276.741 790.706 276.714L1184.14 274.424C1186.08 274.415 1187.87 273.741 1189.29 272.624C1191.25 271.084 1192.51 268.692 1192.51 266.014C1192.51 261.397 1188.76 257.674 1184.13 257.701Z" fill="white"/>
</g>
<path d="M1183.56 258.553C1181.78 259.948 1179.55 260.787 1177.12 260.803L783.692 263.096C777.913 263.129 773.224 258.476 773.224 252.705C773.223 246.933 777.907 242.23 783.688 242.19L1177.11 239.899C1182.9 239.865 1187.58 244.517 1187.58 250.289C1187.59 253.636 1186.01 256.625 1183.56 258.553Z" fill="white"/>
<path d="M988.393 548.965C987.327 549.803 985.987 550.307 984.531 550.316C981.063 550.336 978.249 547.544 978.247 544.081L978.171 253.7C978.165 250.23 980.982 247.413 984.447 247.39C987.915 247.37 990.729 250.163 990.73 253.626L990.807 544.007C990.81 546.017 989.862 547.81 988.393 548.965Z" fill="white"/>
<path d="M953.837 289.71C957.033 286.499 957.032 281.323 953.834 278.149C950.636 274.975 945.453 275.005 942.257 278.216C939.061 281.427 939.062 286.604 942.26 289.778C945.458 292.951 950.641 292.921 953.837 289.71Z" fill="white"/>
<path d="M1028.42 283.549C1028.42 288.065 1024.75 291.745 1020.23 291.772C1015.71 291.798 1012.05 288.16 1012.04 283.645C1012.04 279.13 1015.71 275.449 1020.23 275.422C1024.75 275.395 1028.41 279.035 1028.42 283.549Z" fill="white"/>
<path d="M956.197 505.308C956.198 509.822 952.534 513.504 948.013 513.53C943.493 513.556 939.827 509.918 939.825 505.403C939.824 500.887 943.488 497.207 948.009 497.18C952.53 497.153 956.195 500.793 956.197 505.308Z" fill="white"/>
<path d="M1026.18 510.635C1029.38 507.424 1029.37 502.248 1026.18 499.074C1022.98 495.9 1017.79 495.93 1014.6 499.141C1011.4 502.352 1011.4 507.529 1014.6 510.703C1017.8 513.877 1022.98 513.846 1026.18 510.635Z" fill="white"/>
<path d="M989.892 1343.86C988.472 1344.98 986.684 1345.65 984.743 1345.66C980.117 1345.69 976.366 1341.96 976.367 1337.35L976.246 880.314C976.243 875.696 979.993 871.933 984.615 871.903C989.24 871.875 992.992 875.6 992.99 880.216L993.112 1337.25C993.113 1339.93 991.853 1342.32 989.892 1343.86Z" fill="white"/>
<path d="M956.302 909.367C956.303 913.881 952.64 917.563 948.119 917.589C943.599 917.615 939.933 913.977 939.931 909.462C939.931 904.948 943.594 901.266 948.115 901.24C952.636 901.213 956.301 904.853 956.302 909.367Z" fill="white"/>
<path d="M1026.29 914.713C1029.49 911.502 1029.48 906.325 1026.29 903.151C1023.09 899.977 1017.91 900.008 1014.71 903.219C1011.51 906.43 1011.51 911.606 1014.71 914.78C1017.91 917.954 1023.09 917.924 1026.29 914.713Z" fill="white"/>
<path d="M956.404 1291.56C956.405 1296.08 952.741 1299.76 948.22 1299.79C943.7 1299.81 940.033 1296.18 940.032 1291.66C940.03 1287.15 943.694 1283.46 948.215 1283.44C952.736 1283.41 956.402 1287.05 956.404 1291.56Z" fill="white"/>
<path d="M1028.68 1291.14C1028.68 1295.66 1025.02 1299.34 1020.5 1299.37C1015.98 1299.39 1012.31 1295.75 1012.31 1291.24C1012.31 1286.72 1015.97 1283.04 1020.49 1283.02C1025.02 1282.99 1028.68 1286.63 1028.68 1291.14Z" fill="white"/>
<path d="M956.451 1467.06C956.452 1471.58 952.788 1475.26 948.267 1475.28C943.746 1475.31 940.08 1471.67 940.079 1467.16C940.078 1462.64 943.742 1458.96 948.263 1458.94C952.784 1458.91 956.449 1462.55 956.451 1467.06Z" fill="white"/>
<path d="M1028.73 1466.64C1028.73 1471.16 1025.07 1474.84 1020.55 1474.86C1016.02 1474.89 1012.36 1471.25 1012.36 1466.74C1012.36 1462.22 1016.02 1458.54 1020.54 1458.51C1025.06 1458.49 1028.73 1462.13 1028.73 1466.64Z" fill="white"/>
<path d="M956.537 1792.98C956.538 1797.49 952.875 1801.18 948.354 1801.2C943.833 1801.23 940.167 1797.59 940.166 1793.08C940.165 1788.56 943.829 1784.88 948.35 1784.85C952.87 1784.83 956.536 1788.47 956.537 1792.98Z" fill="white"/>
<path d="M1026.53 1798.37C1029.73 1795.15 1029.73 1789.98 1026.53 1786.8C1023.33 1783.63 1018.15 1783.66 1014.95 1786.87C1011.76 1790.08 1011.76 1795.26 1014.96 1798.43C1018.15 1801.61 1023.34 1801.58 1026.53 1798.37Z" fill="white"/>
<path d="M741.953 1612.54C740.533 1613.66 738.745 1614.33 736.803 1614.34L581.184 1615.25C576.557 1615.28 572.807 1611.55 572.808 1606.93C572.802 1602.31 576.556 1598.55 581.177 1598.52L736.797 1597.62C741.422 1597.59 745.173 1601.31 745.172 1605.93C745.174 1608.61 743.914 1611 741.953 1612.54Z" fill="white"/>
<g opacity="0.3">
<path d="M741.233 1612.14L585.613 1613.04C582.152 1613.06 579.334 1615.89 579.336 1619.35C579.337 1622.82 582.15 1625.61 585.619 1625.59L741.238 1624.68C742.696 1624.67 744.035 1624.17 745.101 1623.33C746.571 1622.17 747.516 1620.38 747.518 1618.37C747.515 1614.91 744.703 1612.12 741.233 1612.14Z" fill="white"/>
</g>
<path d="M1393.98 1608.74C1392.56 1609.86 1390.77 1610.53 1388.83 1610.54L1233.2 1611.45C1228.58 1611.48 1224.82 1607.75 1224.83 1603.13C1224.82 1598.52 1228.57 1594.75 1233.19 1594.72L1388.82 1593.82C1393.44 1593.79 1397.2 1597.52 1397.19 1602.13C1397.2 1604.81 1395.94 1607.2 1393.98 1608.74Z" fill="white"/>
<g opacity="0.3">
<path d="M1393.26 1608.34L1237.64 1609.25C1234.17 1609.27 1231.36 1612.09 1231.36 1615.55C1231.36 1619.02 1234.17 1621.81 1237.64 1621.79L1393.26 1620.88C1394.72 1620.88 1396.06 1620.37 1397.12 1619.53C1398.59 1618.38 1399.54 1616.58 1399.54 1614.58C1399.54 1611.11 1396.72 1608.32 1393.26 1608.34Z" fill="white"/>
</g>
<g opacity="0.3">
<path d="M1080.89 1437.55L899.598 1438.61C896.135 1438.63 893.32 1441.45 893.319 1444.92C893.32 1448.38 896.133 1451.17 899.601 1451.15L1080.89 1450.1C1082.35 1450.09 1083.69 1449.59 1084.75 1448.75C1086.22 1447.59 1087.17 1445.8 1087.17 1443.79C1087.17 1440.32 1084.35 1437.53 1080.89 1437.55Z" fill="white"/>
</g>
<path d="M1081.6 1437.96C1080.19 1439.07 1078.4 1439.74 1076.46 1439.76L895.166 1440.81C890.54 1440.84 886.79 1437.11 886.79 1432.5C886.785 1427.88 890.533 1424.12 895.159 1424.09L1076.45 1423.03C1081.07 1423 1084.82 1426.73 1084.82 1431.34C1084.83 1434.02 1083.57 1436.41 1081.6 1437.96Z" fill="white"/>
<path d="M986.126 1841.31C985.061 1842.15 983.72 1842.65 982.265 1842.66C978.796 1842.68 975.983 1839.89 975.982 1836.43L975.876 1436.24C975.868 1432.77 978.688 1429.95 982.152 1429.93C985.621 1429.91 988.434 1432.7 988.435 1436.16L988.541 1836.35C988.543 1838.36 987.596 1840.16 986.126 1841.31Z" fill="white"/>
<path d="M617.443 1646.19C620.639 1642.98 620.638 1637.8 617.44 1634.62C614.242 1631.45 609.059 1631.48 605.863 1634.69C602.667 1637.9 602.668 1643.08 605.866 1646.25C609.064 1649.43 614.247 1649.4 617.443 1646.19Z" fill="white"/>
<path d="M710.857 1645.64C714.053 1642.43 714.051 1637.25 710.854 1634.08C707.656 1630.91 702.472 1630.94 699.276 1634.15C696.08 1637.36 696.082 1642.54 699.279 1645.71C702.477 1648.88 707.661 1648.85 710.857 1645.64Z" fill="white"/>
<path d="M617.472 1751.85C620.668 1748.64 620.667 1743.46 617.469 1740.29C614.271 1737.11 609.088 1737.14 605.892 1740.35C602.695 1743.56 602.697 1748.74 605.895 1751.91C609.093 1755.09 614.276 1755.06 617.472 1751.85Z" fill="white"/>
<path d="M710.885 1751.3C714.082 1748.09 714.08 1742.92 710.882 1739.74C707.685 1736.57 702.501 1736.6 699.305 1739.81C696.109 1743.02 696.11 1748.2 699.308 1751.37C702.506 1754.54 707.689 1754.51 710.885 1751.3Z" fill="white"/>
<path d="M1272.5 1636.58C1272.5 1641.1 1268.84 1644.78 1264.32 1644.81C1259.8 1644.83 1256.13 1641.19 1256.13 1636.68C1256.13 1632.16 1259.79 1628.48 1264.31 1628.46C1268.83 1628.43 1272.5 1632.07 1272.5 1636.58Z" fill="white"/>
<path d="M1365.91 1636.04C1365.91 1640.55 1362.25 1644.23 1357.73 1644.26C1353.21 1644.29 1349.54 1640.65 1349.54 1636.13C1349.54 1631.62 1353.2 1627.94 1357.72 1627.91C1362.24 1627.89 1365.91 1631.52 1365.91 1636.04Z" fill="white"/>
<path d="M1272.53 1742.24C1272.53 1746.75 1268.86 1750.43 1264.34 1750.46C1259.82 1750.49 1256.16 1746.85 1256.16 1742.33C1256.15 1737.82 1259.82 1734.14 1264.34 1734.11C1268.86 1734.08 1272.53 1737.72 1272.53 1742.24Z" fill="white"/>
<path d="M1365.23 1744.7C1366.86 1740.48 1364.75 1735.76 1360.54 1734.16C1356.32 1732.56 1351.58 1734.68 1349.96 1738.91C1348.33 1743.13 1350.43 1747.85 1354.65 1749.45C1358.87 1751.05 1363.61 1748.92 1365.23 1744.7Z" fill="white"/>
<g opacity="0.3">
<path d="M1003.61 664.621C973.439 664.799 945.089 676.681 923.743 698.13C902.413 719.562 890.669 747.96 890.678 778.093C890.687 808.226 902.446 836.485 923.785 857.669C945.128 878.853 973.502 890.422 1003.67 890.245C1029.83 890.093 1053.93 881.031 1073.1 865.961C1099.57 845.142 1116.62 812.86 1116.61 776.776C1116.59 714.573 1065.9 664.263 1003.61 664.621Z" fill="white"/>
</g>
<path d="M1090.54 781.638C1097.56 724.341 1056.77 672.467 999.429 665.776C942.093 659.084 889.922 700.108 882.902 757.405C875.882 814.703 916.671 866.576 974.008 873.267C1031.34 879.959 1083.52 838.935 1090.54 781.638Z" fill="#858585"/>
<path d="M1057.43 859.788C1037.32 875.603 1012.7 884.254 986.761 884.407C956.03 884.586 927.131 872.802 905.395 851.227C883.658 829.653 871.68 800.865 871.673 770.174C871.667 739.484 883.626 710.559 905.35 688.731C927.077 666.891 955.968 654.784 986.702 654.603C1050.14 654.233 1101.77 705.479 1101.79 768.834C1101.8 799.528 1089.84 828.453 1068.11 850.28C1064.72 853.687 1061.15 856.86 1057.43 859.788ZM928.899 695.646C925.853 698.041 922.934 700.637 920.16 703.426C902.385 721.282 892.599 744.945 892.606 770.05C892.615 795.16 902.41 818.709 920.194 836.359C937.978 854.01 961.614 863.647 986.755 863.502C1011.9 863.353 1035.54 853.448 1053.31 835.585C1071.08 817.726 1080.87 794.064 1080.86 768.957C1080.84 717.126 1038.61 675.205 986.708 675.507C965.493 675.63 945.351 682.709 928.899 695.646Z" fill="white"/>
<g opacity="0.5">
<path d="M987.541 675.542C987.261 675.541 986.99 675.502 986.709 675.504C964.917 675.632 944.83 683.185 928.861 695.742C906.801 713.088 892.599 739.985 892.607 770.052C892.615 795.159 902.412 818.707 920.194 836.357C932.521 848.591 947.695 856.869 964.199 860.815C951.7 856.137 940.211 848.887 930.47 839.215C912.29 821.173 902.275 797.102 902.27 771.435C902.261 740.698 916.776 713.204 939.328 695.47C952.939 684.77 969.504 677.696 987.541 675.542Z" fill="white"/>
</g>
<path d="M1029.48 823.862C1059.67 800.12 1065.01 756.536 1041.4 726.515C1017.8 696.493 974.184 691.403 943.99 715.146C913.796 738.888 908.456 782.472 932.063 812.493C955.67 842.515 999.284 847.605 1029.48 823.862Z" fill="white"/>
<path d="M1033.23 828.884C1020 839.287 1003.81 844.977 986.751 845.074C945.027 845.32 911.067 811.616 911.056 769.944C911.049 728.275 944.99 694.175 986.712 693.931C1006.93 693.815 1025.93 701.564 1040.23 715.754C1054.53 729.945 1062.41 748.878 1062.41 769.064C1062.42 789.252 1054.55 808.275 1040.26 822.633C1038.03 824.874 1035.68 826.959 1033.23 828.884ZM947.929 720.045C933.135 731.678 923.613 749.709 923.615 769.87C923.625 804.624 951.949 832.736 986.747 832.532C1003.61 832.439 1019.46 825.787 1031.38 813.815C1043.29 801.841 1049.85 785.974 1049.85 769.137C1049.85 752.301 1043.28 736.51 1031.35 724.675C1019.43 712.84 1003.58 706.376 986.718 706.475C972.106 706.562 958.635 711.626 947.929 720.045Z" fill="white"/>
<mask id="mask0_66_4" style="mask-type:luminance" maskUnits="userSpaceOnUse" x="923" y="706" width="127" height="127">
<path d="M986.716 706.476C972.492 706.556 958.986 711.302 947.951 719.98C945.909 721.585 943.955 723.323 942.092 725.196C930.176 737.168 923.612 753.036 923.616 769.872C923.625 804.625 951.948 832.736 986.749 832.533C1021.55 832.333 1049.86 803.896 1049.85 769.133L1049.85 769.134C1049.84 734.38 1021.52 706.268 986.716 706.476Z" fill="white"/>
</mask>
<g mask="url(#mask0_66_4)">
<g opacity="0.5">
<path d="M1055.35 633.631L858.295 862.525L880.473 881.534L1077.53 652.64L1055.35 633.631Z" fill="white"/>
</g>
</g>
<mask id="mask1_66_4" style="mask-type:luminance" maskUnits="userSpaceOnUse" x="923" y="706" width="127" height="127">
<path d="M986.716 706.476C972.492 706.556 958.986 711.302 947.951 719.98C945.909 721.585 943.955 723.323 942.092 725.196C930.176 737.168 923.612 753.036 923.616 769.872C923.625 804.625 951.948 832.736 986.749 832.533C1021.55 832.333 1049.86 803.896 1049.85 769.133L1049.85 769.134C1049.84 734.38 1021.52 706.268 986.716 706.476Z" fill="white"/>
</mask>
<g mask="url(#mask1_66_4)">
<g opacity="0.5">
<path d="M1096.19 665.205L899.134 894.099L912.39 905.461L1109.45 676.568L1096.19 665.205Z" fill="white"/>
</g>
</g>
<g opacity="0.3">
<path d="M651.167 1541.91C651.77 1541.84 652.37 1541.77 652.977 1541.71C652.37 1541.77 651.77 1541.84 651.167 1541.91Z" fill="white"/>
</g>
<g opacity="0.3">
<path d="M719.048 1612.44C719.044 1593.87 711.798 1576.46 698.647 1563.4C685.495 1550.35 668.011 1543.22 649.415 1543.33C646.253 1543.34 643.166 1543.65 640.121 1544.09C640.569 1543.96 641.03 1543.87 641.481 1543.75C639.154 1544.37 636.858 1545.06 634.627 1545.89C644.075 1549.26 652.767 1554.61 660.088 1561.88C673.238 1574.93 680.484 1592.35 680.488 1610.92L680.53 1767.79L719.089 1767.56L719.048 1612.44Z" fill="white"/>
</g>
<g opacity="0.3">
<path d="M645.446 1542.81C646.101 1542.68 646.763 1542.57 647.425 1542.45C646.763 1542.57 646.102 1542.68 645.446 1542.81Z" fill="white"/>
</g>
<path d="M1389.66 1875.09L1244.15 1875.93C1222.43 1876.06 1204.81 1858.57 1204.8 1836.88L1204.8 1814.85L1428.98 1813.54L1428.99 1835.57C1428.99 1857.27 1411.38 1874.96 1389.66 1875.09Z" fill="#A0A0A0"/>
<path d="M1421.56 1876.47C1412.75 1883.39 1401.68 1887.56 1389.66 1887.63L1389.66 1887.63L1244.16 1888.48C1215.54 1888.64 1192.25 1865.53 1192.24 1836.95L1192.24 1814.92C1192.23 1811.59 1193.56 1808.39 1195.91 1806.03C1198.28 1803.67 1201.46 1802.32 1204.79 1802.3L1428.98 1801C1435.91 1800.96 1441.54 1806.54 1441.54 1813.47L1441.55 1835.5C1441.55 1852.08 1433.72 1866.91 1421.56 1876.47ZM1389.65 1862.54C1396.8 1862.5 1403.54 1859.69 1408.59 1854.6C1413.65 1849.52 1416.43 1842.79 1416.43 1835.64L1416.42 1826.16L1217.36 1827.31L1217.36 1836.8C1217.37 1851.55 1229.39 1863.48 1244.15 1863.39L1389.65 1862.54L1389.65 1862.54Z" fill="white"/>
<g opacity="0.3">
<path d="M1406.34 1859.19C1407.05 1858.68 1407.74 1858.15 1408.4 1857.57C1407.74 1858.14 1407.05 1858.69 1406.34 1859.19Z" fill="white"/>
</g>
<g opacity="0.3">
<path d="M1415.13 1849.18C1414.83 1849.75 1414.49 1850.3 1414.15 1850.85C1414.49 1850.3 1414.83 1849.75 1415.13 1849.18Z" fill="white"/>
</g>
<g opacity="0.3">
<path d="M1390.72 1864.57C1401.59 1860.37 1409.35 1849.83 1409.35 1837.54L1409.34 1825.96L1355.73 1826.27L1355.73 1825.66L1355.73 1837.24C1355.74 1850.23 1347.08 1861.29 1335.23 1864.95L1389.65 1864.63C1395.85 1864.6 1401.58 1862.59 1406.29 1859.23C1401.85 1862.38 1396.5 1864.33 1390.72 1864.57Z" fill="white"/>
</g>
<g opacity="0.3">
<path d="M1412.49 1853.24C1412.92 1852.68 1413.35 1852.11 1413.74 1851.52C1413.35 1852.11 1412.92 1852.68 1412.49 1853.24Z" fill="white"/>
</g>
<g opacity="0.3">
<path d="M1417.25 1844.09C1417.1 1844.58 1416.91 1845.05 1416.74 1845.53C1416.91 1845.05 1417.1 1844.58 1417.25 1844.09Z" fill="white"/>
</g>
<g opacity="0.3">
<path d="M1410.61 1855.45C1411.14 1854.88 1411.66 1854.31 1412.14 1853.71C1411.66 1854.31 1411.15 1854.88 1410.61 1855.45Z" fill="white"/>
</g>
<g opacity="0.3">
<path d="M1408.56 1857.43C1409.18 1856.89 1409.79 1856.32 1410.36 1855.73C1409.79 1856.32 1409.18 1856.89 1408.56 1857.43Z" fill="white"/>
</g>
<g opacity="0.5">
<path d="M1278.06 1826.96L1236.2 1827.2L1236.2 1836.28C1236.2 1843.98 1239.21 1851.21 1244.66 1856.62C1247.75 1859.69 1251.43 1861.93 1255.43 1863.32L1300.08 1863.06C1294.99 1861.86 1290.32 1859.31 1286.52 1855.55C1281.07 1850.13 1278.06 1842.91 1278.06 1835.21L1278.06 1826.96Z" fill="white"/>
</g>
<path d="M1418.6 1814.47L1211.82 1815.67C1196.87 1815.76 1184.74 1803.72 1184.74 1788.79L1184.74 1774.76L1445.66 1773.24L1445.66 1787.27C1445.67 1802.2 1433.55 1814.38 1418.6 1814.47Z" fill="#A0A0A0"/>
<path d="M1442.96 1818.49C1436.23 1823.77 1427.78 1826.95 1418.6 1827.01C1418.6 1827.01 1418.6 1827.01 1418.6 1827.01L1211.82 1828.21C1189.97 1828.34 1172.19 1810.69 1172.18 1788.87L1172.18 1774.83C1172.18 1767.9 1177.8 1762.25 1184.73 1762.22L1445.66 1760.7C1452.59 1760.66 1458.22 1766.24 1458.22 1773.17L1458.22 1787.2C1458.23 1799.86 1452.24 1811.18 1442.96 1818.49ZM1418.59 1801.92C1426.6 1801.87 1433.1 1795.33 1433.1 1787.35L1433.1 1785.86L1197.3 1787.23L1197.3 1788.72C1197.3 1796.71 1203.81 1803.17 1211.82 1803.13L1418.59 1801.92L1418.59 1801.92Z" fill="white"/>
<g opacity="0.3">
<path d="M1424.73 1787.81L1424.73 1773.78L1365.24 1774.12L1365.24 1786.82C1365.25 1801.75 1353.13 1813.93 1338.18 1814.01L1204.93 1814.79C1207.13 1815.36 1209.43 1815.68 1211.82 1815.67L1418.59 1814.47L1402.23 1814.56C1415.01 1812.31 1424.74 1801.18 1424.73 1787.81Z" fill="white"/>
</g>
<g opacity="0.5">
<path d="M1222.01 1788.88C1222.01 1793.31 1223.74 1797.47 1226.88 1800.58C1227.85 1801.55 1228.95 1802.34 1230.1 1803.02L1269.58 1802.79C1267.08 1802.01 1264.77 1800.71 1262.86 1798.82C1259.72 1795.71 1257.99 1791.55 1257.99 1787.12L1257.99 1786.88L1222.01 1787.09L1222.01 1788.88Z" fill="white"/>
</g>
<g opacity="0.2">
<path d="M900.787 1249.51C883.791 1248.97 870.523 1234.78 871.154 1217.8L879.111 1003.4C879.742 986.427 894.03 973.098 911.026 973.634C928.023 974.169 941.29 988.364 940.66 1005.34L932.702 1219.74C932.073 1236.71 917.784 1250.04 900.787 1249.51Z" fill="white"/>
</g>
</svg>
