<svg width="267" height="379" viewBox="0 0 267 379" fill="none" xmlns="http://www.w3.org/2000/svg">
<path d="M154.388 154.388C182.81 125.966 182.81 79.8849 154.388 51.4628C125.966 23.0407 79.8848 23.0407 51.4628 51.4628C23.0407 79.8849 23.0407 125.966 51.4628 154.388C79.8848 182.81 125.966 182.81 154.388 154.388Z" fill="#100706"/>
<path d="M102.784 190.322C86.2923 190.322 70.1202 185.63 55.8942 176.528C36.2332 163.96 22.6443 144.482 17.6303 121.689C7.28326 74.6434 37.1443 27.9445 84.1933 17.5925C106.983 12.5775 130.365 16.7426 150.028 29.3166C169.688 41.8896 183.278 61.3624 188.29 84.1554C193.302 106.948 189.14 130.332 176.566 149.99C163.995 169.653 144.518 183.243 121.725 188.253H121.728C115.428 189.64 109.081 190.322 102.784 190.322ZM103.075 44.7126C98.8813 44.7126 94.6573 45.1665 90.4603 46.0895C59.1243 52.9845 39.2343 84.0876 46.1273 115.421C49.4673 130.602 58.5172 143.574 71.6132 151.948C84.7112 160.327 100.285 163.096 115.458 159.757C115.458 159.757 115.458 159.757 115.461 159.757C130.641 156.417 143.613 147.369 151.987 134.274C160.361 121.178 163.132 105.606 159.795 90.4255C156.458 75.2445 147.407 62.2714 134.312 53.8974C124.835 47.8374 114.059 44.7126 103.075 44.7126Z" fill="white"/>
<g opacity="0.3">
<path d="M140.631 40.7327C141.801 41.4397 142.956 42.1716 144.085 42.9426C142.956 42.1696 141.802 41.4417 140.631 40.7327Z" fill="white"/>
</g>
<g opacity="0.3">
<path d="M128.275 34.7515C132.351 36.2695 136.272 38.1537 140.001 40.3567C136.271 38.1487 132.354 36.2695 128.275 34.7515Z" fill="white"/>
</g>
<g opacity="0.3">
<path d="M58.6973 160.652C71.3373 165.339 85.4063 166.615 99.5513 163.504C138.808 154.87 163.633 116.047 154.999 76.7896C151.169 59.3756 141.385 44.8215 128.272 34.7505C119.927 31.6445 110.971 29.9906 101.761 30.1516C114.608 40.2086 124.169 54.6235 127.947 71.8035C136.581 111.06 111.756 149.884 72.4993 158.518C67.6623 159.581 62.8344 160.126 58.0664 160.21C64.3844 165.156 71.5055 169.025 79.1165 171.673C71.7545 169.104 64.8593 165.372 58.6973 160.652Z" fill="white"/>
</g>
<g opacity="0.3">
<path d="M155.29 52.4165C155.988 53.1365 156.688 53.8555 157.358 54.6055C156.689 53.8545 155.988 53.1385 155.29 52.4165Z" fill="white"/>
</g>
<g opacity="0.3">
<path d="M144.157 42.9946C146.302 44.4646 148.355 46.0655 150.334 47.7585C148.356 46.0625 146.301 44.4676 144.157 42.9946Z" fill="white"/>
</g>
<g opacity="0.3">
<path d="M79.2744 171.719C81.6714 172.547 84.1114 173.264 86.5984 173.84C84.1134 173.262 81.6704 172.549 79.2744 171.719Z" fill="white"/>
</g>
<g opacity="0.3">
<path d="M151.362 48.6326C152.185 49.3626 152.983 50.1216 153.773 50.8896C152.983 50.1196 152.185 49.3636 151.362 48.6326Z" fill="white"/>
</g>
<g opacity="0.3">
<path d="M169.927 74.4446C170.138 74.9426 170.328 75.4545 170.529 75.9595C170.328 75.4545 170.139 74.9436 169.927 74.4446Z" fill="white"/>
</g>
<g opacity="0.3">
<path d="M166.845 68.1096C167.097 68.5716 167.367 69.0195 167.61 69.4885C167.367 69.0195 167.096 68.5716 166.845 68.1096Z" fill="white"/>
</g>
<g opacity="0.3">
<path d="M96.4893 175.342C98.4143 175.514 100.337 175.693 102.289 175.709C100.338 175.692 98.4133 175.515 96.4893 175.342Z" fill="white"/>
</g>
<g opacity="0.3">
<path d="M87.5403 174.009C89.7823 174.497 92.0404 174.925 94.3384 175.199C92.0424 174.923 89.7813 174.499 87.5403 174.009Z" fill="white"/>
</g>
<path d="M254.271 305.368C250.131 305.368 246.097 303.252 243.822 299.439L155.338 151.232C151.896 145.47 153.778 138.003 159.542 134.562C165.309 131.129 172.772 133.003 176.212 138.77L264.696 286.978C268.138 292.74 266.256 300.207 260.492 303.649C258.538 304.811 256.39 305.368 254.271 305.368Z" fill="white"/>
<path d="M163.304 378.926C157.721 378.926 152.691 375.06 151.444 369.381L108.941 176.129C107.498 169.572 111.644 163.087 118.201 161.642C124.771 160.216 131.243 164.346 132.686 170.904L175.189 364.156C176.632 370.714 172.486 377.199 165.929 378.644C165.048 378.834 164.169 378.926 163.304 378.926Z" fill="white"/>
<path d="M45.4724 351.29C45.0454 351.29 44.6154 351.266 44.1804 351.222C37.5034 350.514 32.6614 344.533 33.3674 337.853L51.5044 166.193C52.2104 159.518 58.1813 154.718 64.8713 155.382C71.5483 156.09 76.3903 162.072 75.6843 168.751L57.5474 340.411C56.8884 346.652 51.6124 351.29 45.4724 351.29Z" fill="white"/>
<g opacity="0.5">
<path d="M102.972 44.7266C98.8453 44.7266 94.6573 45.1676 90.4643 46.0896C83.8243 47.5496 77.6452 50.1605 72.0502 53.6665C64.8522 58.1765 58.6462 64.2077 53.9362 71.5767C46.4552 83.2727 43.4783 96.9405 45.2973 110.541C45.5153 112.17 45.7672 113.8 46.1242 115.423C50.4902 135.254 64.5723 150.471 82.2463 157.248C71.3713 148.872 63.2083 136.87 60.0353 122.444C58.9643 117.572 58.5853 112.715 58.7043 107.938C64.9373 103.853 70.7182 96.1615 74.1122 86.4165C76.5782 79.3385 77.3742 72.3306 76.7372 66.3076C84.6042 58.5256 94.6422 52.7606 106.227 50.2156C112.516 48.8326 118.854 48.5556 125.08 49.1726C118.168 46.3176 110.687 44.7266 102.972 44.7266Z" fill="white"/>
</g>
</svg>
